G04 start of page 9 for group -4063 idx -4063 *
G04 Title: SFT-HW-0023, componentmask *
G04 Creator: pcb 20110918 *
G04 CreationDate: Fri 17 Apr 2015 10:20:39 PM GMT UTC *
G04 For: tgack *
G04 Format: Gerber/RS-274X *
G04 PCB-Dimensions: 380630 455118 *
G04 PCB-Coordinate-Origin: lower left *
%MOIN*%
%FSLAX25Y25*%
%LNTOPMASK*%
%ADD97R,0.0400X0.0400*%
%ADD96R,0.0570X0.0570*%
%ADD95R,0.0572X0.0572*%
%ADD94C,0.1675*%
%ADD93C,0.0394*%
%ADD92C,0.0710*%
%ADD91C,0.0001*%
%ADD90C,0.0700*%
%ADD89C,0.1140*%
%ADD88C,0.0769*%
%ADD87C,0.0660*%
G54D87*X5000Y389118D03*
X15000D03*
X25000D03*
X35000D03*
X45000D03*
G54D88*X60551Y303149D03*
G54D89*X50551Y323149D03*
G54D90*X55551Y283149D03*
G54D91*G36*
X19851Y318849D02*Y307449D01*
X31251D01*
Y318849D01*
X19851D01*
G37*
G36*
X51922Y368825D02*Y361725D01*
X59022D01*
Y368825D01*
X51922D01*
G37*
G54D92*X45472Y365275D03*
G54D93*X20000Y355118D03*
G54D87*X55000Y389118D03*
X65000D03*
X75000D03*
X85000D03*
X95000D03*
X105000D03*
X115000Y449118D03*
X105000D03*
X95000D03*
X85000D03*
X75000D03*
X65000D03*
X55000D03*
X45000D03*
X35000D03*
X25000D03*
X15000D03*
X5000D03*
G54D94*X115354Y340551D03*
G54D90*X120354Y320551D03*
X110354D03*
G54D89*X125354Y285748D03*
G54D88*X95354Y340551D03*
G54D91*G36*
X94654Y356251D02*Y344851D01*
X106054D01*
Y356251D01*
X94654D01*
G37*
G54D88*X95354Y265748D03*
G54D91*G36*
X94654Y281448D02*Y270048D01*
X106054D01*
Y281448D01*
X94654D01*
G37*
G54D90*X100354Y245748D03*
G54D94*X40551Y303149D03*
Y190945D03*
Y116142D03*
Y41338D03*
G54D88*X20551Y303149D03*
G54D90*X25551Y283149D03*
G54D93*X20000Y245118D03*
G54D88*X60551Y190945D03*
G54D89*X50551Y210945D03*
G54D90*X55551Y170945D03*
G54D88*X60551Y116142D03*
G54D89*X50551Y136142D03*
G54D88*X20551Y190945D03*
G54D91*G36*
X19851Y206645D02*Y195245D01*
X31251D01*
Y206645D01*
X19851D01*
G37*
G54D90*X25551Y170945D03*
G54D88*X20551Y116142D03*
G54D91*G36*
X19851Y131842D02*Y120442D01*
X31251D01*
Y131842D01*
X19851D01*
G37*
G54D90*X55551Y96142D03*
G54D88*X60551Y41338D03*
G54D89*X50551Y61338D03*
G54D90*X55551Y21338D03*
X25551Y96142D03*
G54D88*X20551Y41338D03*
G54D91*G36*
X19851Y57038D02*Y45638D01*
X31251D01*
Y57038D01*
X19851D01*
G37*
G54D90*X25551Y21338D03*
G54D94*X115354Y265748D03*
G54D90*X130354Y245748D03*
G54D94*X115354Y190945D03*
G54D89*X125354Y210945D03*
G54D94*X115354Y116142D03*
G54D89*X125354Y136142D03*
G54D88*X95354Y190945D03*
G54D90*X100354Y170945D03*
G54D88*X95354Y116142D03*
G54D91*G36*
X94654Y131842D02*Y120442D01*
X106054D01*
Y131842D01*
X94654D01*
G37*
G54D90*X100354Y96142D03*
G54D93*X100000Y25118D03*
G54D88*X135354Y190945D03*
G54D90*X130354Y170945D03*
G54D91*G36*
X94654Y206645D02*Y195245D01*
X106054D01*
Y206645D01*
X94654D01*
G37*
G54D88*X135354Y116142D03*
G54D90*X130354Y96142D03*
G54D88*X132756Y41338D03*
G54D91*G36*
X132056Y57038D02*Y45638D01*
X143456D01*
Y57038D01*
X132056D01*
G37*
G54D90*X137756Y21338D03*
G54D94*X264961Y190945D03*
X190157D03*
G54D88*X170157D03*
X210157D03*
G54D91*G36*
X169457Y206645D02*Y195245D01*
X180857D01*
Y206645D01*
X169457D01*
G37*
G54D89*X200157Y210945D03*
G54D88*X244961Y190945D03*
G54D90*X249961Y170945D03*
X205157D03*
X175157D03*
G54D88*X284961Y190945D03*
G54D89*X274961Y210945D03*
G54D90*X279961Y170945D03*
G54D88*X284961Y265748D03*
G54D89*X274961Y285748D03*
G54D90*X279961Y245748D03*
G54D91*G36*
X244261Y206645D02*Y195245D01*
X255661D01*
Y206645D01*
X244261D01*
G37*
G54D94*X264961Y265748D03*
G54D88*X244961D03*
G54D91*G36*
X244261Y281448D02*Y270048D01*
X255661D01*
Y281448D01*
X244261D01*
G37*
G54D90*X249961Y245748D03*
G54D94*X339764Y228346D03*
G54D88*X359764D03*
G54D89*X349764Y248346D03*
G54D90*X354764Y208346D03*
G54D88*X319764Y228346D03*
G54D91*G36*
X319064Y244046D02*Y232646D01*
X330464D01*
Y244046D01*
X319064D01*
G37*
G54D90*X324764Y208346D03*
G54D88*X244961Y41338D03*
G54D90*X279961Y21338D03*
X249961D03*
G54D94*X264961Y41338D03*
G54D88*X284961D03*
G54D91*G36*
X244261Y57038D02*Y45638D01*
X255661D01*
Y57038D01*
X244261D01*
G37*
G54D89*X274961Y61338D03*
G54D94*X339764Y78740D03*
G54D88*X319764D03*
G54D90*X324764Y58740D03*
G54D88*X359764Y78740D03*
G54D89*X349764Y98740D03*
G54D90*X354764Y58740D03*
G54D93*X360000Y25118D03*
G54D91*G36*
X319064Y94440D02*Y83040D01*
X330464D01*
Y94440D01*
X319064D01*
G37*
G54D94*X190157Y116142D03*
G54D88*X210157D03*
G54D89*X200157Y136142D03*
G54D90*X205157Y96142D03*
G54D88*X170157Y116142D03*
G54D91*G36*
X169457Y131842D02*Y120442D01*
X180857D01*
Y131842D01*
X169457D01*
G37*
G54D90*X175157Y96142D03*
G54D94*X264961Y116142D03*
G54D88*X244961D03*
X284961D03*
G54D90*X279961Y96142D03*
G54D91*G36*
X244261Y131842D02*Y120442D01*
X255661D01*
Y131842D01*
X244261D01*
G37*
G54D90*X249961Y96142D03*
G54D89*X274961Y136142D03*
G54D94*X152756Y41338D03*
G54D88*X172756D03*
G54D89*X162756Y61338D03*
G54D90*X167756Y21338D03*
G54D87*X115000Y389118D03*
X125000D03*
X135000D03*
Y399118D03*
Y409118D03*
Y419118D03*
Y429118D03*
G54D88*X135354Y265748D03*
G54D87*X135000Y439118D03*
Y449118D03*
X125000D03*
G54D88*X135354Y340551D03*
G54D89*X125354Y360551D03*
G54D94*X190157Y340551D03*
G54D88*X210157D03*
G54D89*X200157Y360551D03*
G54D90*X205157Y320551D03*
G54D88*X170157Y340551D03*
G54D91*G36*
X169457Y356251D02*Y344851D01*
X180857D01*
Y356251D01*
X169457D01*
G37*
G54D90*X175157Y320551D03*
G54D94*X264961Y340551D03*
G54D88*X244961D03*
G54D91*G36*
X244261Y356251D02*Y344851D01*
X255661D01*
Y356251D01*
X244261D01*
G37*
G54D90*X249961Y320551D03*
G54D94*X190157Y265748D03*
G54D88*X210157D03*
G54D89*X200157Y285748D03*
G54D90*X205157Y245748D03*
G54D88*X170157Y265748D03*
G54D91*G36*
X169457Y281448D02*Y270048D01*
X180857D01*
Y281448D01*
X169457D01*
G37*
G54D90*X175157Y245748D03*
G54D88*X284961Y340551D03*
G54D90*X279961Y320551D03*
G54D89*X274961Y360551D03*
X349764D03*
G54D94*X339764Y340551D03*
G54D88*X319764D03*
X359764D03*
G54D91*G36*
X319064Y356251D02*Y344851D01*
X330464D01*
Y356251D01*
X319064D01*
G37*
G54D90*X354764Y320551D03*
X324764D03*
G54D93*X360000Y435118D03*
Y285118D03*
G54D95*X59055Y78346D02*Y77560D01*
X43701Y78346D02*Y77560D01*
X50787Y78346D02*Y77560D01*
X66141Y78346D02*Y77560D01*
X161260Y78424D02*Y77638D01*
X168346Y78424D02*Y77638D01*
X283465Y78346D02*Y77560D01*
X267717Y78346D02*Y77560D01*
X274803Y78346D02*Y77560D01*
X290551Y78346D02*Y77560D01*
X310630Y22046D02*Y21260D01*
X303544Y22046D02*Y21260D01*
X43622Y153228D02*Y152442D01*
X50708Y153228D02*Y152442D01*
X43701Y229133D02*Y228347D01*
X50787Y229133D02*Y228347D01*
X347638Y191338D02*Y190552D01*
X354724Y191338D02*Y190552D01*
X347953Y116613D02*Y115827D01*
X355039Y116613D02*Y115827D01*
X59134Y229291D02*Y228505D01*
X66220Y229291D02*Y228505D01*
X58977Y153228D02*Y152442D01*
X66063Y153228D02*Y152442D01*
X132284Y375590D02*Y374804D01*
X139370Y375590D02*Y374804D01*
X132284Y302755D02*Y301969D01*
X139370Y302755D02*Y301969D01*
X118111Y302755D02*Y301969D01*
X125197Y302755D02*Y301969D01*
X152363Y324803D02*X153149D01*
X152363Y331889D02*X153149D01*
X118347Y375668D02*Y374882D01*
X125433Y375668D02*Y374882D01*
G54D96*X70158Y350685D02*Y348685D01*
X77558Y350685D02*Y348685D01*
G54D95*X48426Y349212D02*Y348426D01*
X55512Y349212D02*Y348426D01*
X152363Y350000D02*X153149D01*
X152363Y342914D02*X153149D01*
X204631Y389425D02*X205417D01*
X204631Y382339D02*X205417D01*
X196757Y389504D02*X197543D01*
X196757Y382418D02*X197543D01*
G54D97*X181448Y382512D02*X182048D01*
X181448Y390312D02*X182048D01*
X173248Y386412D02*X173848D01*
M02*
