G04 start of page 11 for group -4079 idx -4079 *
G04 Title: SFT-HW-0023, topsilk *
G04 Creator: pcb 20110918 *
G04 CreationDate: Fri 17 Apr 2015 10:20:39 PM GMT UTC *
G04 For: tgack *
G04 Format: Gerber/RS-274X *
G04 PCB-Dimensions: 380630 455118 *
G04 PCB-Coordinate-Origin: lower left *
%MOIN*%
%FSLAX25Y25*%
%LNTOPSILK*%
%ADD108C,0.0200*%
%ADD107C,0.0100*%
%ADD106C,0.0080*%
G54D106*X224803Y428921D02*X226803D01*
X225803D02*Y424921D01*
X228503D02*X230003D01*
X228003Y425421D02*X228503Y424921D01*
X228003Y426421D02*Y425421D01*
Y426421D02*X228503Y426921D01*
X229503D01*
X230003Y426421D01*
X228003Y425921D02*X230003D01*
Y426421D02*Y425921D01*
X231703Y426421D02*Y424921D01*
Y426421D02*X232203Y426921D01*
X232703D01*
X233203Y426421D01*
Y424921D01*
X231203Y426921D02*X231703Y426421D01*
X234403Y428921D02*Y424921D01*
Y426421D02*X235903Y424921D01*
X234403Y426421D02*X235403Y427421D01*
X237603Y424921D02*X239103D01*
X237103Y425421D02*X237603Y424921D01*
X237103Y426421D02*Y425421D01*
Y426421D02*X237603Y426921D01*
X238603D01*
X239103Y426421D01*
X237103Y425921D02*X239103D01*
Y426421D02*Y425921D01*
X240303Y426921D02*Y425421D01*
X240803Y424921D01*
X242303Y426921D02*Y423921D01*
X241803Y423421D02*X242303Y423921D01*
X240803Y423421D02*X241803D01*
X240303Y423921D02*X240803Y423421D01*
Y424921D02*X241803D01*
X242303Y425421D01*
X245803Y428921D02*Y424921D01*
X245303Y428921D02*X247303D01*
X247803Y428421D01*
Y427421D01*
X247303Y426921D02*X247803Y427421D01*
X245803Y426921D02*X247303D01*
X249503Y426421D02*Y424921D01*
Y426421D02*X250003Y426921D01*
X251003D01*
X249003D02*X249503Y426421D01*
X252203D02*Y425421D01*
Y426421D02*X252703Y426921D01*
X253703D01*
X254203Y426421D01*
Y425421D01*
X253703Y424921D02*X254203Y425421D01*
X252703Y424921D02*X253703D01*
X252203Y425421D02*X252703Y424921D01*
X255903Y427921D02*Y427821D01*
Y426421D02*Y423921D01*
X255403Y423421D02*X255903Y423921D01*
X257403Y424921D02*X258903D01*
X256903Y425421D02*X257403Y424921D01*
X256903Y426421D02*Y425421D01*
Y426421D02*X257403Y426921D01*
X258403D01*
X258903Y426421D01*
X256903Y425921D02*X258903D01*
Y426421D02*Y425921D01*
X260603Y426921D02*X262103D01*
X260103Y426421D02*X260603Y426921D01*
X260103Y426421D02*Y425421D01*
X260603Y424921D01*
X262103D01*
X263803Y428921D02*Y425421D01*
X264303Y424921D01*
X263303Y427421D02*X264303D01*
X235039Y413961D02*X237039D01*
X236039D02*Y409961D01*
X238239D02*X238739D01*
X243739Y413961D02*X244239Y413461D01*
X242239Y413961D02*X243739D01*
X241739Y413461D02*X242239Y413961D01*
X241739Y413461D02*Y410461D01*
X242239Y409961D01*
X243739D01*
X244239Y410461D01*
Y411461D02*Y410461D01*
X243739Y411961D02*X244239Y411461D01*
X242739Y411961D02*X243739D01*
X246939D02*X247439Y411461D01*
X245939Y411961D02*X246939D01*
X245439Y411461D02*X245939Y411961D01*
X245439Y411461D02*Y410461D01*
X245939Y409961D01*
X247439Y411961D02*Y410461D01*
X247939Y409961D01*
X245939D02*X246939D01*
X247439Y410461D01*
X249639Y411961D02*X251139D01*
X249139Y411461D02*X249639Y411961D01*
X249139Y411461D02*Y410461D01*
X249639Y409961D01*
X251139D01*
X252339Y413961D02*Y409961D01*
Y411461D02*X253839Y409961D01*
X252339Y411461D02*X253339Y412461D01*
X224803Y417441D02*X226803D01*
X227303Y417941D01*
Y419141D02*Y417941D01*
X226803Y419641D02*X227303Y419141D01*
X225303Y419641D02*X226803D01*
X225303Y421441D02*Y417441D01*
X224803Y421441D02*X226803D01*
X227303Y420941D01*
Y420141D01*
X226803Y419641D02*X227303Y420141D01*
X228503Y419441D02*Y417941D01*
X229003Y417441D01*
X230503Y419441D02*Y416441D01*
X230003Y415941D02*X230503Y416441D01*
X229003Y415941D02*X230003D01*
X228503Y416441D02*X229003Y415941D01*
Y417441D02*X230003D01*
X230503Y417941D01*
X231703Y419941D02*X232203D01*
X231703Y418941D02*X232203D01*
X235203Y421441D02*Y419441D01*
X235703Y417441D01*
X236703Y419441D01*
X237703Y417441D01*
X238203Y419441D01*
Y421441D02*Y419441D01*
X239403Y420441D02*Y420341D01*
Y418941D02*Y417441D01*
X240403Y421441D02*Y417941D01*
X240903Y417441D01*
X241903Y421441D02*Y417941D01*
X242403Y417441D01*
X245203Y419641D02*X246703D01*
X245203Y417441D02*X247203D01*
X245203Y421441D02*Y417441D01*
Y421441D02*X247203D01*
X248903Y418941D02*Y417441D01*
Y418941D02*X249403Y419441D01*
X249903D01*
X250403Y418941D01*
Y417441D01*
X248403Y419441D02*X248903Y418941D01*
X253103Y419441D02*X253603Y418941D01*
X252103Y419441D02*X253103D01*
X251603Y418941D02*X252103Y419441D01*
X251603Y418941D02*Y417941D01*
X252103Y417441D01*
X253103D01*
X253603Y417941D01*
X251603Y416441D02*X252103Y415941D01*
X253103D01*
X253603Y416441D01*
Y419441D02*Y416441D01*
X255303Y417441D02*X256803D01*
X254803Y417941D02*X255303Y417441D01*
X254803Y418941D02*Y417941D01*
Y418941D02*X255303Y419441D01*
X256303D01*
X256803Y418941D01*
X254803Y418441D02*X256803D01*
Y418941D02*Y418441D01*
X258003Y421441D02*Y417941D01*
X258503Y417441D01*
X260003D02*X261503D01*
X262003Y417941D01*
X261503Y418441D02*X262003Y417941D01*
X260003Y418441D02*X261503D01*
X259503Y418941D02*X260003Y418441D01*
X259503Y418941D02*X260003Y419441D01*
X261503D01*
X262003Y418941D01*
X259503Y417941D02*X260003Y417441D01*
X298457Y445850D02*X298957Y445350D01*
X296957Y445850D02*X298457D01*
X296457Y445350D02*X296957Y445850D01*
X296457Y445350D02*Y444350D01*
X296957Y443850D01*
X298457D01*
X298957Y443350D01*
Y442350D01*
X298457Y441850D02*X298957Y442350D01*
X296957Y441850D02*X298457D01*
X296457Y442350D02*X296957Y441850D01*
X300157Y445850D02*Y441850D01*
Y445850D02*X302157D01*
X300157Y444050D02*X301657D01*
X303357Y445850D02*X305357D01*
X304357D02*Y441850D01*
X306557Y443850D02*X308557D01*
X309757Y445850D02*Y441850D01*
X312257Y445850D02*Y441850D01*
X309757Y443850D02*X312257D01*
X313457Y445850D02*Y443850D01*
X313957Y441850D01*
X314957Y443850D01*
X315957Y441850D01*
X316457Y443850D01*
Y445850D02*Y443850D01*
X317657D02*X319657D01*
X320857Y442350D02*X321357Y441850D01*
X320857Y445350D02*Y442350D01*
Y445350D02*X321357Y445850D01*
X322357D01*
X322857Y445350D01*
Y442350D01*
X322357Y441850D02*X322857Y442350D01*
X321357Y441850D02*X322357D01*
X320857Y442850D02*X322857Y444850D01*
X324057Y442350D02*X324557Y441850D01*
X324057Y445350D02*Y442350D01*
Y445350D02*X324557Y445850D01*
X325557D01*
X326057Y445350D01*
Y442350D01*
X325557Y441850D02*X326057Y442350D01*
X324557Y441850D02*X325557D01*
X324057Y442850D02*X326057Y444850D01*
X327257Y445350D02*X327757Y445850D01*
X329257D01*
X329757Y445350D01*
Y444350D01*
X327257Y441850D02*X329757Y444350D01*
X327257Y441850D02*X329757D01*
X330957Y445350D02*X331457Y445850D01*
X332457D01*
X332957Y445350D01*
X332457Y441850D02*X332957Y442350D01*
X331457Y441850D02*X332457D01*
X330957Y442350D02*X331457Y441850D01*
Y444050D02*X332457D01*
X332957Y445350D02*Y444550D01*
Y443550D02*Y442350D01*
Y443550D02*X332457Y444050D01*
X332957Y444550D02*X332457Y444050D01*
X296063Y439157D02*X298063D01*
X298563Y438657D01*
Y437657D01*
X298063Y437157D02*X298563Y437657D01*
X296563Y437157D02*X298063D01*
X296563Y439157D02*Y435157D01*
X297363Y437157D02*X298563Y435157D01*
X299763Y437357D02*X301263D01*
X299763Y435157D02*X301763D01*
X299763Y439157D02*Y435157D01*
Y439157D02*X301763D01*
X302963D02*X303963Y435157D01*
X304963Y439157D01*
X307963Y438157D02*Y435157D01*
Y438157D02*X308663Y439157D01*
X309763D01*
X310463Y438157D01*
Y435157D01*
X307963Y437157D02*X310463D01*
X311663Y435157D02*X312163D01*
X273141Y417047D02*X274441D01*
X272441Y417747D02*X273141Y417047D01*
X272441Y420347D02*Y417747D01*
Y420347D02*X273141Y421047D01*
X274441D01*
X277141Y419047D02*X277641Y418547D01*
X276141Y419047D02*X277141D01*
X275641Y418547D02*X276141Y419047D01*
X275641Y418547D02*Y417547D01*
X276141Y417047D01*
X277641Y419047D02*Y417547D01*
X278141Y417047D01*
X276141D02*X277141D01*
X277641Y417547D01*
X279841Y417047D02*X281341D01*
X281841Y417547D01*
X281341Y418047D02*X281841Y417547D01*
X279841Y418047D02*X281341D01*
X279341Y418547D02*X279841Y418047D01*
X279341Y418547D02*X279841Y419047D01*
X281341D01*
X281841Y418547D01*
X279341Y417547D02*X279841Y417047D01*
X283541Y419047D02*X285041D01*
X283041Y418547D02*X283541Y419047D01*
X283041Y418547D02*Y417547D01*
X283541Y417047D01*
X285041D01*
X287741Y419047D02*X288241Y418547D01*
X286741Y419047D02*X287741D01*
X286241Y418547D02*X286741Y419047D01*
X286241Y418547D02*Y417547D01*
X286741Y417047D01*
X288241Y419047D02*Y417547D01*
X288741Y417047D01*
X286741D02*X287741D01*
X288241Y417547D01*
X291941Y421047D02*Y417047D01*
X291441D02*X291941Y417547D01*
X290441Y417047D02*X291441D01*
X289941Y417547D02*X290441Y417047D01*
X289941Y418547D02*Y417547D01*
Y418547D02*X290441Y419047D01*
X291441D01*
X291941Y418547D01*
X293641Y417047D02*X295141D01*
X293141Y417547D02*X293641Y417047D01*
X293141Y418547D02*Y417547D01*
Y418547D02*X293641Y419047D01*
X294641D01*
X295141Y418547D01*
X293141Y418047D02*X295141D01*
Y418547D02*Y418047D01*
X298841Y417047D02*X300141D01*
X298141Y417747D02*X298841Y417047D01*
X298141Y420347D02*Y417747D01*
Y420347D02*X298841Y421047D01*
X300141D01*
X301341Y418547D02*Y417547D01*
Y418547D02*X301841Y419047D01*
X302841D01*
X303341Y418547D01*
Y417547D01*
X302841Y417047D02*X303341Y417547D01*
X301841Y417047D02*X302841D01*
X301341Y417547D02*X301841Y417047D01*
X305041Y418547D02*Y417047D01*
Y418547D02*X305541Y419047D01*
X306041D01*
X306541Y418547D01*
Y417047D01*
Y418547D02*X307041Y419047D01*
X307541D01*
X308041Y418547D01*
Y417047D01*
X304541Y419047D02*X305041Y418547D01*
X309741D02*Y415547D01*
X309241Y419047D02*X309741Y418547D01*
X310241Y419047D01*
X311241D01*
X311741Y418547D01*
Y417547D01*
X311241Y417047D02*X311741Y417547D01*
X310241Y417047D02*X311241D01*
X309741Y417547D02*X310241Y417047D01*
X312941Y419047D02*Y417547D01*
X313441Y417047D01*
X314441D01*
X314941Y417547D01*
Y419047D02*Y417547D01*
X316641Y421047D02*Y417547D01*
X317141Y417047D01*
X316141Y419547D02*X317141D01*
X318641Y417047D02*X320141D01*
X318141Y417547D02*X318641Y417047D01*
X318141Y418547D02*Y417547D01*
Y418547D02*X318641Y419047D01*
X319641D01*
X320141Y418547D01*
X318141Y418047D02*X320141D01*
Y418547D02*Y418047D01*
X321841Y418547D02*Y417047D01*
Y418547D02*X322341Y419047D01*
X323341D01*
X321341D02*X321841Y418547D01*
X325041Y417047D02*X326541D01*
X327041Y417547D01*
X326541Y418047D02*X327041Y417547D01*
X325041Y418047D02*X326541D01*
X324541Y418547D02*X325041Y418047D01*
X324541Y418547D02*X325041Y419047D01*
X326541D01*
X327041Y418547D01*
X324541Y417547D02*X325041Y417047D01*
X274441Y413961D02*X274941Y413461D01*
X272941Y413961D02*X274441D01*
X272441Y413461D02*X272941Y413961D01*
X272441Y413461D02*Y412461D01*
X272941Y411961D01*
X274441D01*
X274941Y411461D01*
Y410461D01*
X274441Y409961D02*X274941Y410461D01*
X272941Y409961D02*X274441D01*
X272441Y410461D02*X272941Y409961D01*
X276141Y411461D02*Y410461D01*
Y411461D02*X276641Y411961D01*
X277641D01*
X278141Y411461D01*
Y410461D01*
X277641Y409961D02*X278141Y410461D01*
X276641Y409961D02*X277641D01*
X276141Y410461D02*X276641Y409961D01*
X279341Y413961D02*Y410461D01*
X279841Y409961D01*
X282341Y411961D02*X282841Y411461D01*
X281341Y411961D02*X282341D01*
X280841Y411461D02*X281341Y411961D01*
X280841Y411461D02*Y410461D01*
X281341Y409961D01*
X282841Y411961D02*Y410461D01*
X283341Y409961D01*
X281341D02*X282341D01*
X282841Y410461D01*
X285041Y411461D02*Y409961D01*
Y411461D02*X285541Y411961D01*
X286541D01*
X284541D02*X285041Y411461D01*
X288241Y413461D02*Y409961D01*
Y413461D02*X288741Y413961D01*
X289241D01*
X287741Y411961D02*X288741D01*
X290241Y412961D02*Y412861D01*
Y411461D02*Y409961D01*
X291741Y411461D02*Y409961D01*
Y411461D02*X292241Y411961D01*
X293241D01*
X291241D02*X291741Y411461D01*
X294941Y409961D02*X296441D01*
X294441Y410461D02*X294941Y409961D01*
X294441Y411461D02*Y410461D01*
Y411461D02*X294941Y411961D01*
X295941D01*
X296441Y411461D01*
X294441Y410961D02*X296441D01*
Y411461D02*Y410961D01*
X299441Y413961D02*X301441D01*
X300441D02*Y409961D01*
X303141D02*X304641D01*
X302641Y410461D02*X303141Y409961D01*
X302641Y411461D02*Y410461D01*
Y411461D02*X303141Y411961D01*
X304141D01*
X304641Y411461D01*
X302641Y410961D02*X304641D01*
Y411461D02*Y410961D01*
X306341Y411961D02*X307841D01*
X305841Y411461D02*X306341Y411961D01*
X305841Y411461D02*Y410461D01*
X306341Y409961D01*
X307841D01*
X309041Y413961D02*Y409961D01*
Y411461D02*X309541Y411961D01*
X310541D01*
X311041Y411461D01*
Y409961D01*
X312741Y411461D02*Y409961D01*
Y411461D02*X313241Y411961D01*
X313741D01*
X314241Y411461D01*
Y409961D01*
X312241Y411961D02*X312741Y411461D01*
X315441D02*Y410461D01*
Y411461D02*X315941Y411961D01*
X316941D01*
X317441Y411461D01*
Y410461D01*
X316941Y409961D02*X317441Y410461D01*
X315941Y409961D02*X316941D01*
X315441Y410461D02*X315941Y409961D01*
X318641Y413961D02*Y410461D01*
X319141Y409961D01*
X320141Y411461D02*Y410461D01*
Y411461D02*X320641Y411961D01*
X321641D01*
X322141Y411461D01*
Y410461D01*
X321641Y409961D02*X322141Y410461D01*
X320641Y409961D02*X321641D01*
X320141Y410461D02*X320641Y409961D01*
X324841Y411961D02*X325341Y411461D01*
X323841Y411961D02*X324841D01*
X323341Y411461D02*X323841Y411961D01*
X323341Y411461D02*Y410461D01*
X323841Y409961D01*
X324841D01*
X325341Y410461D01*
X323341Y408961D02*X323841Y408461D01*
X324841D01*
X325341Y408961D01*
Y411961D02*Y408961D01*
X326541Y412961D02*Y412861D01*
Y411461D02*Y409961D01*
X328041D02*X329541D01*
X327541Y410461D02*X328041Y409961D01*
X327541Y411461D02*Y410461D01*
Y411461D02*X328041Y411961D01*
X329041D01*
X329541Y411461D01*
X327541Y410961D02*X329541D01*
Y411461D02*Y410961D01*
X331241Y409961D02*X332741D01*
X333241Y410461D01*
X332741Y410961D02*X333241Y410461D01*
X331241Y410961D02*X332741D01*
X330741Y411461D02*X331241Y410961D01*
X330741Y411461D02*X331241Y411961D01*
X332741D01*
X333241Y411461D01*
X330741Y410461D02*X331241Y409961D01*
X334441Y408961D02*X335441Y409961D01*
X338441Y413961D02*Y409961D01*
X340441D01*
X341641Y413961D02*Y409961D01*
X343641D01*
X345541D02*X346841D01*
X344841Y410661D02*X345541Y409961D01*
X344841Y413261D02*Y410661D01*
Y413261D02*X345541Y413961D01*
X346841D01*
G54D107*X234961Y71338D02*X294961D01*
Y11338D01*
X234961D01*
Y71338D01*
Y220945D02*X294961D01*
Y160945D01*
X234961D01*
Y220945D01*
Y146142D02*X294961D01*
Y86142D01*
X234961D01*
Y146142D01*
Y295748D02*X294961D01*
Y235748D01*
X234961D01*
Y295748D01*
G54D106*X350788Y193700D02*X351574D01*
X350788Y188190D02*X351574D01*
G54D107*X309764Y370551D02*X369764D01*
Y310551D01*
X309764D01*
Y370551D01*
Y258346D02*X369764D01*
Y198346D01*
X309764D01*
Y258346D01*
G54D106*X342283Y435118D02*G75*G03X342283Y435118I17717J0D01*G01*
Y285118D02*G75*G03X342283Y285118I17717J0D01*G01*
X351103Y118975D02*X351889D01*
X351103Y113465D02*X351889D01*
G54D107*X309764Y108740D02*X369764D01*
Y48740D01*
X309764D01*
Y108740D01*
G54D106*X306694Y18898D02*X307480D01*
X306694Y24408D02*X307480D01*
X342283Y25118D02*G75*G03X342283Y25118I17717J0D01*G01*
X135434Y305117D02*X136220D01*
X135434Y299607D02*X136220D01*
X46851Y231495D02*X47637D01*
X46851Y225985D02*X47637D01*
X121261Y305117D02*X122047D01*
X121261Y299607D02*X122047D01*
G54D107*X10551Y333149D02*X70551D01*
Y273149D01*
X10551D01*
Y333149D01*
X85354Y295748D02*X145354D01*
Y235748D01*
X85354D01*
Y295748D01*
G54D106*X135434Y377952D02*X136220D01*
X135434Y372442D02*X136220D01*
X121497Y378030D02*X122283D01*
X121497Y372520D02*X122283D01*
X207779Y386275D02*Y385489D01*
X202269Y386275D02*Y385489D01*
X199905Y386354D02*Y385568D01*
X194395Y386354D02*Y385568D01*
G54D107*X170748Y380012D02*X184648D01*
Y392812D02*Y380012D01*
X170748Y392812D02*X184648D01*
X170748D02*Y380012D01*
G54D106*X51576Y351574D02*X52362D01*
X51576Y346064D02*X52362D01*
X155511Y346850D02*Y346064D01*
X150001Y346850D02*Y346064D01*
Y328739D02*Y327953D01*
X155511Y328739D02*Y327953D01*
G54D107*X85354Y370551D02*X145354D01*
Y310551D01*
X85354D01*
Y370551D01*
X160157D02*X220157D01*
Y310551D01*
X160157D01*
Y370551D01*
X234961D02*X294961D01*
Y310551D01*
X234961D01*
Y370551D01*
G54D108*X65558Y353185D02*Y346185D01*
G54D107*X68058Y345185D01*
X81158D01*
Y354185D01*
X68058D01*
X65558Y353185D01*
X0Y454118D02*X140000D01*
Y384118D01*
X0D01*
X-5000Y409118D02*Y429118D01*
X5000D01*
Y409118D01*
X-5000D01*
X0Y454118D02*Y429118D01*
Y384118D02*Y409118D01*
X54644Y369447D02*G75*G03X46300Y369447I-4172J-4172D01*G01*
X46300Y361103D02*G75*G03X54644Y361103I4172J4172D01*G01*
X56058Y370861D02*G75*G03X44886Y370861I-5586J-5586D01*G01*
X44886Y359689D02*G75*G03X56058Y359689I5586J5586D01*G01*
G54D106*X2283Y245118D02*G75*G03X2283Y245118I17717J0D01*G01*
Y355118D02*G75*G03X2283Y355118I17717J0D01*G01*
X62127Y155590D02*X62913D01*
X62127Y150080D02*X62913D01*
X46772Y155590D02*X47558D01*
X46772Y150080D02*X47558D01*
G54D107*X10551Y220945D02*X70551D01*
Y160945D01*
X10551D01*
Y220945D01*
Y146142D02*X70551D01*
Y86142D01*
X10551D01*
Y146142D01*
X160157Y220945D02*X220157D01*
Y160945D01*
X160157D01*
Y220945D01*
Y295748D02*X220157D01*
Y235748D01*
X160157D01*
Y295748D01*
G54D106*X62284Y231653D02*X63070D01*
X62284Y226143D02*X63070D01*
G54D107*X85354Y220945D02*X145354D01*
Y160945D01*
X85354D01*
Y220945D01*
G54D106*X286615Y80708D02*X287401D01*
X286615Y75198D02*X287401D01*
X270867Y80708D02*X271653D01*
X270867Y75198D02*X271653D01*
X164410Y80786D02*X165196D01*
X164410Y75276D02*X165196D01*
G54D107*X85354Y146142D02*X145354D01*
Y86142D01*
X85354D01*
Y146142D01*
X160157D02*X220157D01*
Y86142D01*
X160157D01*
Y146142D01*
G54D106*X62205Y80708D02*X62991D01*
X62205Y75198D02*X62991D01*
X46851Y80708D02*X47637D01*
X46851Y75198D02*X47637D01*
G54D107*X10551Y71338D02*X70551D01*
Y11338D01*
X10551D01*
Y71338D01*
G54D106*X82283Y25118D02*G75*G03X82283Y25118I17717J0D01*G01*
G54D107*X122756Y71338D02*X182756D01*
Y11338D01*
X122756D01*
Y71338D01*
G54D106*X71181Y154591D02*X73181D01*
X73681Y154091D01*
Y153091D01*
X73181Y152591D02*X73681Y153091D01*
X71681Y152591D02*X73181D01*
X71681Y154591D02*Y150591D01*
X72481Y152591D02*X73681Y150591D01*
X74881Y154091D02*X75381Y154591D01*
X76881D01*
X77381Y154091D01*
Y153091D01*
X74881Y150591D02*X77381Y153091D01*
X74881Y150591D02*X77381D01*
X79081D02*X81081Y154591D01*
X78581D02*X81081D01*
X72362Y80103D02*X74362D01*
X74862Y79603D01*
Y78603D01*
X74362Y78103D02*X74862Y78603D01*
X72862Y78103D02*X74362D01*
X72862Y80103D02*Y76103D01*
X73662Y78103D02*X74862Y76103D01*
X76062Y79603D02*X76562Y80103D01*
X78062D01*
X78562Y79603D01*
Y78603D01*
X76062Y76103D02*X78562Y78603D01*
X76062Y76103D02*X78562D01*
X81262Y80103D02*X81762Y79603D01*
X80262Y80103D02*X81262D01*
X79762Y79603D02*X80262Y80103D01*
X79762Y79603D02*Y76603D01*
X80262Y76103D01*
X81262Y78303D02*X81762Y77803D01*
X79762Y78303D02*X81262D01*
X80262Y76103D02*X81262D01*
X81762Y76603D01*
Y77803D02*Y76603D01*
X29921Y154906D02*X31921D01*
X32421Y154406D01*
Y153406D01*
X31921Y152906D02*X32421Y153406D01*
X30421Y152906D02*X31921D01*
X30421Y154906D02*Y150906D01*
X31221Y152906D02*X32421Y150906D01*
X33621Y154106D02*X34421Y154906D01*
Y150906D01*
X33621D02*X35121D01*
X36321Y151406D02*X36821Y150906D01*
X36321Y152206D02*Y151406D01*
Y152206D02*X37021Y152906D01*
X37621D01*
X38321Y152206D01*
Y151406D01*
X37821Y150906D02*X38321Y151406D01*
X36821Y150906D02*X37821D01*
X36321Y153606D02*X37021Y152906D01*
X36321Y154406D02*Y153606D01*
Y154406D02*X36821Y154906D01*
X37821D01*
X38321Y154406D01*
Y153606D01*
X37621Y152906D02*X38321Y153606D01*
X12630Y152544D02*X13130Y152044D01*
X11130Y152544D02*X12630D01*
X10630Y152044D02*X11130Y152544D01*
X10630Y152044D02*Y151044D01*
X11130Y150544D01*
X12630D01*
X13130Y150044D01*
Y149044D01*
X12630Y148544D02*X13130Y149044D01*
X11130Y148544D02*X12630D01*
X10630Y149044D02*X11130Y148544D01*
X14330Y151744D02*X15130Y152544D01*
Y148544D01*
X14330D02*X15830D01*
X17030Y152044D02*X17530Y152544D01*
X18530D01*
X19030Y152044D01*
X18530Y148544D02*X19030Y149044D01*
X17530Y148544D02*X18530D01*
X17030Y149044D02*X17530Y148544D01*
Y150744D02*X18530D01*
X19030Y152044D02*Y151244D01*
Y150244D02*Y149044D01*
Y150244D02*X18530Y150744D01*
X19030Y151244D02*X18530Y150744D01*
X87590Y152701D02*X88090Y152201D01*
X86090Y152701D02*X87590D01*
X85590Y152201D02*X86090Y152701D01*
X85590Y152201D02*Y151201D01*
X86090Y150701D01*
X87590D01*
X88090Y150201D01*
Y149201D01*
X87590Y148701D02*X88090Y149201D01*
X86090Y148701D02*X87590D01*
X85590Y149201D02*X86090Y148701D01*
X89290Y151901D02*X90090Y152701D01*
Y148701D01*
X89290D02*X90790D01*
X91990Y150201D02*X93990Y152701D01*
X91990Y150201D02*X94490D01*
X93990Y152701D02*Y148701D01*
X237040Y78212D02*X237540Y77712D01*
X235540Y78212D02*X237040D01*
X235040Y77712D02*X235540Y78212D01*
X235040Y77712D02*Y76712D01*
X235540Y76212D01*
X237040D01*
X237540Y75712D01*
Y74712D01*
X237040Y74212D02*X237540Y74712D01*
X235540Y74212D02*X237040D01*
X235040Y74712D02*X235540Y74212D01*
X238740Y77712D02*X239240Y78212D01*
X240740D01*
X241240Y77712D01*
Y76712D01*
X238740Y74212D02*X241240Y76712D01*
X238740Y74212D02*X241240D01*
X242440Y77412D02*X243240Y78212D01*
Y74212D01*
X242440D02*X243940D01*
X29921Y80024D02*X31921D01*
X32421Y79524D01*
Y78524D01*
X31921Y78024D02*X32421Y78524D01*
X30421Y78024D02*X31921D01*
X30421Y80024D02*Y76024D01*
X31221Y78024D02*X32421Y76024D01*
X33621Y79224D02*X34421Y80024D01*
Y76024D01*
X33621D02*X35121D01*
X36821D02*X38321Y78024D01*
Y79524D02*Y78024D01*
X37821Y80024D02*X38321Y79524D01*
X36821Y80024D02*X37821D01*
X36321Y79524D02*X36821Y80024D01*
X36321Y79524D02*Y78524D01*
X36821Y78024D01*
X38321D01*
X124835Y78133D02*X125335Y77633D01*
X123335Y78133D02*X124835D01*
X122835Y77633D02*X123335Y78133D01*
X122835Y77633D02*Y76633D01*
X123335Y76133D01*
X124835D01*
X125335Y75633D01*
Y74633D01*
X124835Y74133D02*X125335Y74633D01*
X123335Y74133D02*X124835D01*
X122835Y74633D02*X123335Y74133D01*
X126535Y77333D02*X127335Y78133D01*
Y74133D01*
X126535D02*X128035D01*
X129735D02*X131235Y76133D01*
Y77633D02*Y76133D01*
X130735Y78133D02*X131235Y77633D01*
X129735Y78133D02*X130735D01*
X129235Y77633D02*X129735Y78133D01*
X129235Y77633D02*Y76633D01*
X129735Y76133D01*
X131235D01*
X87433Y227740D02*X87933Y227240D01*
X85933Y227740D02*X87433D01*
X85433Y227240D02*X85933Y227740D01*
X85433Y227240D02*Y226240D01*
X85933Y225740D01*
X87433D01*
X87933Y225240D01*
Y224240D01*
X87433Y223740D02*X87933Y224240D01*
X85933Y223740D02*X87433D01*
X85433Y224240D02*X85933Y223740D01*
X89133Y226940D02*X89933Y227740D01*
Y223740D01*
X89133D02*X90633D01*
X91833Y224240D02*X92333Y223740D01*
X91833Y227240D02*Y224240D01*
Y227240D02*X92333Y227740D01*
X93333D01*
X93833Y227240D01*
Y224240D01*
X93333Y223740D02*X93833Y224240D01*
X92333Y223740D02*X93333D01*
X91833Y224740D02*X93833Y226740D01*
X174409Y80890D02*X176409D01*
X176909Y80390D01*
Y79390D01*
X176409Y78890D02*X176909Y79390D01*
X174909Y78890D02*X176409D01*
X174909Y80890D02*Y76890D01*
X175709Y78890D02*X176909Y76890D01*
X178109Y80090D02*X178909Y80890D01*
Y76890D01*
X178109D02*X179609D01*
X180809Y80390D02*X181309Y80890D01*
X182309D01*
X182809Y80390D01*
X182309Y76890D02*X182809Y77390D01*
X181309Y76890D02*X182309D01*
X180809Y77390D02*X181309Y76890D01*
Y79090D02*X182309D01*
X182809Y80390D02*Y79590D01*
Y78590D02*Y77390D01*
Y78590D02*X182309Y79090D01*
X182809Y79590D02*X182309Y79090D01*
X162236Y153331D02*X162736Y152831D01*
X160736Y153331D02*X162236D01*
X160236Y152831D02*X160736Y153331D01*
X160236Y152831D02*Y151831D01*
X160736Y151331D01*
X162236D01*
X162736Y150831D01*
Y149831D01*
X162236Y149331D02*X162736Y149831D01*
X160736Y149331D02*X162236D01*
X160236Y149831D02*X160736Y149331D01*
X163936Y152531D02*X164736Y153331D01*
Y149331D01*
X163936D02*X165436D01*
X166636Y153331D02*X168636D01*
X166636D02*Y151331D01*
X167136Y151831D01*
X168136D01*
X168636Y151331D01*
Y149831D01*
X168136Y149331D02*X168636Y149831D01*
X167136Y149331D02*X168136D01*
X166636Y149831D02*X167136Y149331D01*
X237040Y153331D02*X237540Y152831D01*
X235540Y153331D02*X237040D01*
X235040Y152831D02*X235540Y153331D01*
X235040Y152831D02*Y151831D01*
X235540Y151331D01*
X237040D01*
X237540Y150831D01*
Y149831D01*
X237040Y149331D02*X237540Y149831D01*
X235540Y149331D02*X237040D01*
X235040Y149831D02*X235540Y149331D01*
X238740Y152531D02*X239540Y153331D01*
Y149331D01*
X238740D02*X240240D01*
X242940Y153331D02*X243440Y152831D01*
X241940Y153331D02*X242940D01*
X241440Y152831D02*X241940Y153331D01*
X241440Y152831D02*Y149831D01*
X241940Y149331D01*
X242940Y151531D02*X243440Y151031D01*
X241440Y151531D02*X242940D01*
X241940Y149331D02*X242940D01*
X243440Y149831D01*
Y151031D02*Y149831D01*
X12945Y77818D02*X13445Y77318D01*
X11445Y77818D02*X12945D01*
X10945Y77318D02*X11445Y77818D01*
X10945Y77318D02*Y76318D01*
X11445Y75818D01*
X12945D01*
X13445Y75318D01*
Y74318D01*
X12945Y73818D02*X13445Y74318D01*
X11445Y73818D02*X12945D01*
X10945Y74318D02*X11445Y73818D01*
X14645Y77018D02*X15445Y77818D01*
Y73818D01*
X14645D02*X16145D01*
X17845D02*X19845Y77818D01*
X17345D02*X19845D01*
X144251Y377741D02*X146251D01*
X146751Y377241D01*
Y376241D01*
X146251Y375741D02*X146751Y376241D01*
X144751Y375741D02*X146251D01*
X144751Y377741D02*Y373741D01*
X145551Y375741D02*X146751Y373741D01*
X147951Y377241D02*X148451Y377741D01*
X149451D01*
X149951Y377241D01*
X149451Y373741D02*X149951Y374241D01*
X148451Y373741D02*X149451D01*
X147951Y374241D02*X148451Y373741D01*
Y375941D02*X149451D01*
X149951Y377241D02*Y376441D01*
Y375441D02*Y374241D01*
Y375441D02*X149451Y375941D01*
X149951Y376441D02*X149451Y375941D01*
X151151Y374241D02*X151651Y373741D01*
X151151Y377241D02*Y374241D01*
Y377241D02*X151651Y377741D01*
X152651D01*
X153151Y377241D01*
Y374241D01*
X152651Y373741D02*X153151Y374241D01*
X151651Y373741D02*X152651D01*
X151151Y374741D02*X153151Y376741D01*
X71287Y342394D02*Y338394D01*
X72587Y342394D02*X73287Y341694D01*
Y339094D01*
X72587Y338394D02*X73287Y339094D01*
X70787Y338394D02*X72587D01*
X70787Y342394D02*X72587D01*
X74487Y341894D02*X74987Y342394D01*
X76487D01*
X76987Y341894D01*
Y340894D01*
X74487Y338394D02*X76987Y340894D01*
X74487Y338394D02*X76987D01*
X104331Y377346D02*X106331D01*
X106831Y376846D01*
Y375846D01*
X106331Y375346D02*X106831Y375846D01*
X104831Y375346D02*X106331D01*
X104831Y377346D02*Y373346D01*
X105631Y375346D02*X106831Y373346D01*
X108031Y376546D02*X108831Y377346D01*
Y373346D01*
X108031D02*X109531D01*
X110731Y377346D02*X112731D01*
X110731D02*Y375346D01*
X111231Y375846D01*
X112231D01*
X112731Y375346D01*
Y373846D01*
X112231Y373346D02*X112731Y373846D01*
X111231Y373346D02*X112231D01*
X110731Y373846D02*X111231Y373346D01*
X87590Y377740D02*X88090Y377240D01*
X86090Y377740D02*X87590D01*
X85590Y377240D02*X86090Y377740D01*
X85590Y377240D02*Y376240D01*
X86090Y375740D01*
X87590D01*
X88090Y375240D01*
Y374240D01*
X87590Y373740D02*X88090Y374240D01*
X86090Y373740D02*X87590D01*
X85590Y374240D02*X86090Y373740D01*
X89290Y377240D02*X89790Y377740D01*
X91290D01*
X91790Y377240D01*
Y376240D01*
X89290Y373740D02*X91790Y376240D01*
X89290Y373740D02*X91790D01*
X62626Y367188D02*Y363188D01*
X63926Y367188D02*X64626Y366488D01*
Y363888D01*
X63926Y363188D02*X64626Y363888D01*
X62126Y363188D02*X63926D01*
X62126Y367188D02*X63926D01*
X65826Y366388D02*X66626Y367188D01*
Y363188D01*
X65826D02*X67326D01*
X46221Y344197D02*X48221D01*
X48721Y343697D01*
Y342697D01*
X48221Y342197D02*X48721Y342697D01*
X46721Y342197D02*X48221D01*
X46721Y344197D02*Y340197D01*
X47521Y342197D02*X48721Y340197D01*
X49921Y343697D02*X50421Y344197D01*
X51921D01*
X52421Y343697D01*
Y342697D01*
X49921Y340197D02*X52421Y342697D01*
X49921Y340197D02*X52421D01*
X53621Y341697D02*X55621Y344197D01*
X53621Y341697D02*X56121D01*
X55621Y344197D02*Y340197D01*
X39716Y340259D02*X40216Y339759D01*
X38216Y340259D02*X39716D01*
X37716Y339759D02*X38216Y340259D01*
X37716Y339759D02*Y338759D01*
X38216Y338259D01*
X39716D01*
X40216Y337759D01*
Y336759D01*
X39716Y336259D02*X40216Y336759D01*
X38216Y336259D02*X39716D01*
X37716Y336759D02*X38216Y336259D01*
X41416Y339459D02*X42216Y340259D01*
Y336259D01*
X41416D02*X42916D01*
X3031Y380874D02*Y377374D01*
X3531Y376874D01*
X4531D01*
X5031Y377374D01*
Y380874D02*Y377374D01*
X6231Y380074D02*X7031Y380874D01*
Y376874D01*
X6231D02*X7731D01*
X150906Y361505D02*Y360205D01*
X151606Y362205D02*X150906Y361505D01*
X151606Y362205D02*X154206D01*
X154906Y361505D01*
Y360205D01*
X154106Y359005D02*X154906Y358205D01*
X150906D02*X154906D01*
X150906Y359005D02*Y357505D01*
X154906Y356305D02*Y354305D01*
X152906Y356305D02*X154906D01*
X152906D02*X153406Y355805D01*
Y354805D01*
X152906Y354305D01*
X151406D02*X152906D01*
X150906Y354805D02*X151406Y354305D01*
X150906Y355805D02*Y354805D01*
X151406Y356305D02*X150906Y355805D01*
X202700Y377646D02*X204700D01*
X205200Y377146D01*
Y376146D01*
X204700Y375646D02*X205200Y376146D01*
X203200Y375646D02*X204700D01*
X203200Y377646D02*Y373646D01*
X204000Y375646D02*X205200Y373646D01*
X206400Y377146D02*X206900Y377646D01*
X208400D01*
X208900Y377146D01*
Y376146D01*
X206400Y373646D02*X208900Y376146D01*
X206400Y373646D02*X208900D01*
X210100Y377146D02*X210600Y377646D01*
X212100D01*
X212600Y377146D01*
Y376146D01*
X210100Y373646D02*X212600Y376146D01*
X210100Y373646D02*X212600D01*
X237040Y377740D02*X237540Y377240D01*
X235540Y377740D02*X237040D01*
X235040Y377240D02*X235540Y377740D01*
X235040Y377240D02*Y376240D01*
X235540Y375740D01*
X237040D01*
X237540Y375240D01*
Y374240D01*
X237040Y373740D02*X237540Y374240D01*
X235540Y373740D02*X237040D01*
X235040Y374240D02*X235540Y373740D01*
X238740Y375240D02*X240740Y377740D01*
X238740Y375240D02*X241240D01*
X240740Y377740D02*Y373740D01*
X311921Y377661D02*X312421Y377161D01*
X310421Y377661D02*X311921D01*
X309921Y377161D02*X310421Y377661D01*
X309921Y377161D02*Y376161D01*
X310421Y375661D01*
X311921D01*
X312421Y375161D01*
Y374161D01*
X311921Y373661D02*X312421Y374161D01*
X310421Y373661D02*X311921D01*
X309921Y374161D02*X310421Y373661D01*
X313621Y377661D02*X315621D01*
X313621D02*Y375661D01*
X314121Y376161D01*
X315121D01*
X315621Y375661D01*
Y374161D01*
X315121Y373661D02*X315621Y374161D01*
X314121Y373661D02*X315121D01*
X313621Y374161D02*X314121Y373661D01*
X190811Y377646D02*X192811D01*
X193311Y377146D01*
Y376146D01*
X192811Y375646D02*X193311Y376146D01*
X191311Y375646D02*X192811D01*
X191311Y377646D02*Y373646D01*
X192111Y375646D02*X193311Y373646D01*
X194511Y377146D02*X195011Y377646D01*
X196511D01*
X197011Y377146D01*
Y376146D01*
X194511Y373646D02*X197011Y376146D01*
X194511Y373646D02*X197011D01*
X198211Y376846D02*X199011Y377646D01*
Y373646D01*
X198211D02*X199711D01*
X162472Y377661D02*X162972Y377161D01*
X160972Y377661D02*X162472D01*
X160472Y377161D02*X160972Y377661D01*
X160472Y377161D02*Y376161D01*
X160972Y375661D01*
X162472D01*
X162972Y375161D01*
Y374161D01*
X162472Y373661D02*X162972Y374161D01*
X160972Y373661D02*X162472D01*
X160472Y374161D02*X160972Y373661D01*
X164172Y377161D02*X164672Y377661D01*
X165672D01*
X166172Y377161D01*
X165672Y373661D02*X166172Y374161D01*
X164672Y373661D02*X165672D01*
X164172Y374161D02*X164672Y373661D01*
Y375861D02*X165672D01*
X166172Y377161D02*Y376361D01*
Y375361D02*Y374161D01*
Y375361D02*X165672Y375861D01*
X166172Y376361D02*X165672Y375861D01*
X186890Y384418D02*Y381418D01*
Y384418D02*X187390Y384918D01*
X188390D01*
X188890Y384418D01*
Y381918D01*
X187890Y380918D02*X188890Y381918D01*
X187390Y380918D02*X187890D01*
X186890Y381418D02*X187390Y380918D01*
X187890Y382418D02*X188890Y380918D01*
X190090Y384118D02*X190890Y384918D01*
Y380918D01*
X190090D02*X191590D01*
X162236Y227976D02*X162736Y227476D01*
X160736Y227976D02*X162236D01*
X160236Y227476D02*X160736Y227976D01*
X160236Y227476D02*Y226476D01*
X160736Y225976D01*
X162236D01*
X162736Y225476D01*
Y224476D01*
X162236Y223976D02*X162736Y224476D01*
X160736Y223976D02*X162236D01*
X160236Y224476D02*X160736Y223976D01*
X163936Y227176D02*X164736Y227976D01*
Y223976D01*
X163936D02*X165436D01*
X166636Y227176D02*X167436Y227976D01*
Y223976D01*
X166636D02*X168136D01*
X30472Y228055D02*X32472D01*
X32972Y227555D01*
Y226555D01*
X32472Y226055D02*X32972Y226555D01*
X30972Y226055D02*X32472D01*
X30972Y228055D02*Y224055D01*
X31772Y226055D02*X32972Y224055D01*
X34172Y227255D02*X34972Y228055D01*
Y224055D01*
X34172D02*X35672D01*
X37372D02*X39372Y228055D01*
X36872D02*X39372D01*
X236882Y303567D02*X237382Y303067D01*
X235382Y303567D02*X236882D01*
X234882Y303067D02*X235382Y303567D01*
X234882Y303067D02*Y302067D01*
X235382Y301567D01*
X236882D01*
X237382Y301067D01*
Y300067D01*
X236882Y299567D02*X237382Y300067D01*
X235382Y299567D02*X236882D01*
X234882Y300067D02*X235382Y299567D01*
X238582Y300067D02*X239082Y299567D01*
X238582Y300867D02*Y300067D01*
Y300867D02*X239282Y301567D01*
X239882D01*
X240582Y300867D01*
Y300067D01*
X240082Y299567D02*X240582Y300067D01*
X239082Y299567D02*X240082D01*
X238582Y302267D02*X239282Y301567D01*
X238582Y303067D02*Y302267D01*
Y303067D02*X239082Y303567D01*
X240082D01*
X240582Y303067D01*
Y302267D01*
X239882Y301567D02*X240582Y302267D01*
X143701Y304512D02*X145701D01*
X146201Y304012D01*
Y303012D01*
X145701Y302512D02*X146201Y303012D01*
X144201Y302512D02*X145701D01*
X144201Y304512D02*Y300512D01*
X145001Y302512D02*X146201Y300512D01*
X147401Y304012D02*X147901Y304512D01*
X149401D01*
X149901Y304012D01*
Y303012D01*
X147401Y300512D02*X149901Y303012D01*
X147401Y300512D02*X149901D01*
X151601D02*X153101Y302512D01*
Y304012D02*Y302512D01*
X152601Y304512D02*X153101Y304012D01*
X151601Y304512D02*X152601D01*
X151101Y304012D02*X151601Y304512D01*
X151101Y304012D02*Y303012D01*
X151601Y302512D01*
X153101D01*
X70944Y230654D02*X72944D01*
X73444Y230154D01*
Y229154D01*
X72944Y228654D02*X73444Y229154D01*
X71444Y228654D02*X72944D01*
X71444Y230654D02*Y226654D01*
X72244Y228654D02*X73444Y226654D01*
X74644Y230154D02*X75144Y230654D01*
X76644D01*
X77144Y230154D01*
Y229154D01*
X74644Y226654D02*X77144Y229154D01*
X74644Y226654D02*X77144D01*
X78344Y227154D02*X78844Y226654D01*
X78344Y227954D02*Y227154D01*
Y227954D02*X79044Y228654D01*
X79644D01*
X80344Y227954D01*
Y227154D01*
X79844Y226654D02*X80344Y227154D01*
X78844Y226654D02*X79844D01*
X78344Y229354D02*X79044Y228654D01*
X78344Y230154D02*Y229354D01*
Y230154D02*X78844Y230654D01*
X79844D01*
X80344Y230154D01*
Y229354D01*
X79644Y228654D02*X80344Y229354D01*
X104016Y304433D02*X106016D01*
X106516Y303933D01*
Y302933D01*
X106016Y302433D02*X106516Y302933D01*
X104516Y302433D02*X106016D01*
X104516Y304433D02*Y300433D01*
X105316Y302433D02*X106516Y300433D01*
X107716Y303633D02*X108516Y304433D01*
Y300433D01*
X107716D02*X109216D01*
X111916Y304433D02*X112416Y303933D01*
X110916Y304433D02*X111916D01*
X110416Y303933D02*X110916Y304433D01*
X110416Y303933D02*Y300933D01*
X110916Y300433D01*
X111916Y302633D02*X112416Y302133D01*
X110416Y302633D02*X111916D01*
X110916Y300433D02*X111916D01*
X112416Y300933D01*
Y302133D02*Y300933D01*
X151000Y312551D02*Y310551D01*
Y312551D02*X151500Y313051D01*
X152500D01*
X153000Y312551D02*X152500Y313051D01*
X153000Y312551D02*Y311051D01*
X151000D02*X155000D01*
X153000Y311851D02*X155000Y313051D01*
X151500Y314251D02*X151000Y314751D01*
Y316251D02*Y314751D01*
Y316251D02*X151500Y316751D01*
X152500D01*
X155000Y314251D02*X152500Y316751D01*
X155000D02*Y314251D01*
X151500Y317951D02*X151000Y318451D01*
Y319451D02*Y318451D01*
Y319451D02*X151500Y319951D01*
X155000Y319451D02*X154500Y319951D01*
X155000Y319451D02*Y318451D01*
X154500Y317951D02*X155000Y318451D01*
X152800Y319451D02*Y318451D01*
X151500Y319951D02*X152300D01*
X153300D02*X154500D01*
X153300D02*X152800Y319451D01*
X152300Y319951D02*X152800Y319451D01*
X87433Y302858D02*X87933Y302358D01*
X85933Y302858D02*X87433D01*
X85433Y302358D02*X85933Y302858D01*
X85433Y302358D02*Y301358D01*
X85933Y300858D01*
X87433D01*
X87933Y300358D01*
Y299358D01*
X87433Y298858D02*X87933Y299358D01*
X85933Y298858D02*X87433D01*
X85433Y299358D02*X85933Y298858D01*
X90633Y302858D02*X91133Y302358D01*
X89633Y302858D02*X90633D01*
X89133Y302358D02*X89633Y302858D01*
X89133Y302358D02*Y299358D01*
X89633Y298858D01*
X90633Y301058D02*X91133Y300558D01*
X89133Y301058D02*X90633D01*
X89633Y298858D02*X90633D01*
X91133Y299358D01*
Y300558D02*Y299358D01*
X162157Y303173D02*X162657Y302673D01*
X160657Y303173D02*X162157D01*
X160157Y302673D02*X160657Y303173D01*
X160157Y302673D02*Y301673D01*
X160657Y301173D01*
X162157D01*
X162657Y300673D01*
Y299673D01*
X162157Y299173D02*X162657Y299673D01*
X160657Y299173D02*X162157D01*
X160157Y299673D02*X160657Y299173D01*
X164357D02*X166357Y303173D01*
X163857D02*X166357D01*
X12630Y226953D02*X13130Y226453D01*
X11130Y226953D02*X12630D01*
X10630Y226453D02*X11130Y226953D01*
X10630Y226453D02*Y225453D01*
X11130Y224953D01*
X12630D01*
X13130Y224453D01*
Y223453D01*
X12630Y222953D02*X13130Y223453D01*
X11130Y222953D02*X12630D01*
X10630Y223453D02*X11130Y222953D01*
X14830D02*X16330Y224953D01*
Y226453D02*Y224953D01*
X15830Y226953D02*X16330Y226453D01*
X14830Y226953D02*X15830D01*
X14330Y226453D02*X14830Y226953D01*
X14330Y226453D02*Y225453D01*
X14830Y224953D01*
X16330D01*
X236961Y228291D02*X237461Y227791D01*
X235461Y228291D02*X236961D01*
X234961Y227791D02*X235461Y228291D01*
X234961Y227791D02*Y226791D01*
X235461Y226291D01*
X236961D01*
X237461Y225791D01*
Y224791D01*
X236961Y224291D02*X237461Y224791D01*
X235461Y224291D02*X236961D01*
X234961Y224791D02*X235461Y224291D01*
X238661Y227491D02*X239461Y228291D01*
Y224291D01*
X238661D02*X240161D01*
X241361Y227791D02*X241861Y228291D01*
X243361D01*
X243861Y227791D01*
Y226791D01*
X241361Y224291D02*X243861Y226791D01*
X241361Y224291D02*X243861D01*
X359448Y192701D02*X361448D01*
X361948Y192201D01*
Y191201D01*
X361448Y190701D02*X361948Y191201D01*
X359948Y190701D02*X361448D01*
X359948Y192701D02*Y188701D01*
X360748Y190701D02*X361948Y188701D01*
X363148Y191901D02*X363948Y192701D01*
Y188701D01*
X363148D02*X364648D01*
X365848Y190201D02*X367848Y192701D01*
X365848Y190201D02*X368348D01*
X367848Y192701D02*Y188701D01*
X296456Y80103D02*X298456D01*
X298956Y79603D01*
Y78603D01*
X298456Y78103D02*X298956Y78603D01*
X296956Y78103D02*X298456D01*
X296956Y80103D02*Y76103D01*
X297756Y78103D02*X298956Y76103D01*
X300156Y79603D02*X300656Y80103D01*
X302156D01*
X302656Y79603D01*
Y78603D01*
X300156Y76103D02*X302656Y78603D01*
X300156Y76103D02*X302656D01*
X303856Y80103D02*X305856D01*
X303856D02*Y78103D01*
X304356Y78603D01*
X305356D01*
X305856Y78103D01*
Y76603D01*
X305356Y76103D02*X305856Y76603D01*
X304356Y76103D02*X305356D01*
X303856Y76603D02*X304356Y76103D01*
X252835Y79631D02*X254835D01*
X255335Y79131D01*
Y78131D01*
X254835Y77631D02*X255335Y78131D01*
X253335Y77631D02*X254835D01*
X253335Y79631D02*Y75631D01*
X254135Y77631D02*X255335Y75631D01*
X256535Y79131D02*X257035Y79631D01*
X258535D01*
X259035Y79131D01*
Y78131D01*
X256535Y75631D02*X259035Y78131D01*
X256535Y75631D02*X259035D01*
X260235Y76131D02*X260735Y75631D01*
X260235Y79131D02*Y76131D01*
Y79131D02*X260735Y79631D01*
X261735D01*
X262235Y79131D01*
Y76131D01*
X261735Y75631D02*X262235Y76131D01*
X260735Y75631D02*X261735D01*
X260235Y76631D02*X262235Y78631D01*
X345590Y125063D02*X347590D01*
X348090Y124563D01*
Y123563D01*
X347590Y123063D02*X348090Y123563D01*
X346090Y123063D02*X347590D01*
X346090Y125063D02*Y121063D01*
X346890Y123063D02*X348090Y121063D01*
X349290Y124263D02*X350090Y125063D01*
Y121063D01*
X349290D02*X350790D01*
X351990Y124563D02*X352490Y125063D01*
X353990D01*
X354490Y124563D01*
Y123563D01*
X351990Y121063D02*X354490Y123563D01*
X351990Y121063D02*X354490D01*
X311685Y115220D02*X312185Y114720D01*
X310185Y115220D02*X311685D01*
X309685Y114720D02*X310185Y115220D01*
X309685Y114720D02*Y113720D01*
X310185Y113220D01*
X311685D01*
X312185Y112720D01*
Y111720D01*
X311685Y111220D02*X312185Y111720D01*
X310185Y111220D02*X311685D01*
X309685Y111720D02*X310185Y111220D01*
X313385Y114420D02*X314185Y115220D01*
Y111220D01*
X313385D02*X314885D01*
X316085Y111720D02*X316585Y111220D01*
X316085Y112520D02*Y111720D01*
Y112520D02*X316785Y113220D01*
X317385D01*
X318085Y112520D01*
Y111720D01*
X317585Y111220D02*X318085Y111720D01*
X316585Y111220D02*X317585D01*
X316085Y113920D02*X316785Y113220D01*
X316085Y114720D02*Y113920D01*
Y114720D02*X316585Y115220D01*
X317585D01*
X318085Y114720D01*
Y113920D01*
X317385Y113220D02*X318085Y113920D01*
X316378Y23882D02*X318378D01*
X318878Y23382D01*
Y22382D01*
X318378Y21882D02*X318878Y22382D01*
X316878Y21882D02*X318378D01*
X316878Y23882D02*Y19882D01*
X317678Y21882D02*X318878Y19882D01*
X320078Y23082D02*X320878Y23882D01*
Y19882D01*
X320078D02*X321578D01*
X322778Y23082D02*X323578Y23882D01*
Y19882D01*
X322778D02*X324278D01*
X311528Y266007D02*X312028Y265507D01*
X310028Y266007D02*X311528D01*
X309528Y265507D02*X310028Y266007D01*
X309528Y265507D02*Y264507D01*
X310028Y264007D01*
X311528D01*
X312028Y263507D01*
Y262507D01*
X311528Y262007D02*X312028Y262507D01*
X310028Y262007D02*X311528D01*
X309528Y262507D02*X310028Y262007D01*
X313228Y265507D02*X313728Y266007D01*
X315228D01*
X315728Y265507D01*
Y264507D01*
X313228Y262007D02*X315728Y264507D01*
X313228Y262007D02*X315728D01*
X316928Y262507D02*X317428Y262007D01*
X316928Y265507D02*Y262507D01*
Y265507D02*X317428Y266007D01*
X318428D01*
X318928Y265507D01*
Y262507D01*
X318428Y262007D02*X318928Y262507D01*
X317428Y262007D02*X318428D01*
X316928Y263007D02*X318928Y265007D01*
M02*
