G04 start of page 2 for group 0 idx 0 *
G04 Title: SFT-HW-0023, top *
G04 Creator: pcb 20110918 *
G04 CreationDate: Fri 17 Apr 2015 10:20:38 PM GMT UTC *
G04 For: tgack *
G04 Format: Gerber/RS-274X *
G04 PCB-Dimensions: 380630 455118 *
G04 PCB-Coordinate-Origin: lower left *
%MOIN*%
%FSLAX25Y25*%
%LNTOP*%
%ADD29C,0.1575*%
%ADD28C,0.1440*%
%ADD27C,0.0430*%
%ADD26C,0.0400*%
%ADD25C,0.0669*%
%ADD24C,0.0350*%
%ADD23C,0.0120*%
%ADD22C,0.0240*%
%ADD21R,0.0340X0.0340*%
%ADD20R,0.0510X0.0510*%
%ADD19R,0.0512X0.0512*%
%ADD18C,0.1615*%
%ADD17C,0.0650*%
%ADD16C,0.0001*%
%ADD15C,0.0640*%
%ADD14C,0.1080*%
%ADD13C,0.0709*%
%ADD12C,0.0600*%
%ADD11C,0.0100*%
G54D11*X71378Y5512D02*X55551Y21338D01*
X272795Y14173D02*X198031D01*
X189370Y5512D01*
X71378D02*X189370D01*
X167756Y21338D02*X205039D01*
X205118Y21260D01*
X59055Y77953D02*X50787D01*
X66141D02*X71260D01*
X76378Y83071D01*
X50787Y77953D02*Y61574D01*
X205118Y77953D02*X205039Y78031D01*
X168346D01*
X161260Y78424D02*X160788Y77953D01*
X155512D01*
X227559D02*X267717D01*
X272795Y14173D02*X280276Y21653D01*
X303544D01*
X310630Y22046D02*X316141Y16535D01*
X319291D01*
X274961Y61338D02*Y77795D01*
X274803Y77953D01*
X283465D01*
X254803Y61338D02*X264173Y51968D01*
X301969D01*
X264961Y53937D02*X255512Y63386D01*
X354764Y57520D02*X348425Y51181D01*
X322047D01*
X347953Y116613D02*X347481Y116142D01*
X341732D01*
X362205Y116535D02*X361890Y116220D01*
X355039D01*
X322047Y51181D02*X319291Y53937D01*
X264961D01*
X50787Y61574D02*X50551Y61338D01*
X51260D02*X50787Y61811D01*
X51260Y61338D02*X254803D01*
X354764Y58740D02*Y57520D01*
X290551Y78346D02*X290552D01*
X301969Y51968D02*X309843Y44094D01*
X339370D01*
X290552Y78346D02*X294882D01*
X298031Y81496D01*
Y83071D01*
X43701Y78346D03*
Y81890D01*
X255512Y63386D02*X173228D01*
X166929Y69685D01*
X156693D01*
X153543Y66535D01*
X129921D01*
X274961Y136142D02*X50551D01*
X50708Y136299D01*
Y152835D01*
Y152442D02*X51101Y152835D01*
X43622Y153228D02*X43701Y153306D01*
Y157874D01*
X46850Y161024D01*
X51101Y152835D02*X58977D01*
X66063Y153228D02*X70315Y157480D01*
X73622D01*
X46850Y161024D02*X80315D01*
X43701Y81890D02*X49606Y87795D01*
X79528D01*
X48426Y348819D02*X42520D01*
X55472Y365275D02*Y348858D01*
X55512Y348819D01*
X50787Y211181D02*Y228740D01*
Y229133D02*X51023Y228898D01*
X43701Y229133D02*Y229134D01*
Y233071D01*
X49213Y238583D01*
X51023Y228898D02*X59134D01*
X50551Y323149D02*X50630Y323228D01*
X35039Y414567D02*X35433Y414173D01*
X50551Y210945D02*X50787Y211181D01*
X66220Y229291D02*X71969Y235039D01*
X72441D01*
X74409Y238583D02*X79528Y233464D01*
X86220D01*
X130354Y245748D02*X123976Y239370D01*
X80709D01*
X49213Y238583D02*X74409D01*
X125354Y285748D02*X125197Y285905D01*
X118111Y302755D02*X118110Y302756D01*
Y307087D01*
X125197Y285905D02*Y302362D01*
X132284Y302755D02*X131891Y302362D01*
X125197D01*
X139370Y302755D02*X144095Y307480D01*
X146850D01*
X116732Y314173D02*X162992D01*
X119685Y308661D02*X139370D01*
X120354Y320551D02*X120433Y320472D01*
X129921D01*
X134252Y324803D01*
X110354Y320551D02*X116732Y314173D01*
X118110Y307087D02*X119685Y308661D01*
X100354Y350551D02*X98701Y348898D01*
X78342Y349901D02*X99705D01*
X96457Y323228D02*X102362Y329134D01*
X35433Y414173D02*X197244D01*
X153150Y424016D02*X25197D01*
X85039Y404331D02*X85827Y403543D01*
X100000Y418898D02*X114961D01*
X70079Y359842D02*X70158Y359763D01*
Y343621D01*
X77558Y350685D02*X78342Y349901D01*
X50630Y323228D02*X96457D01*
X81496Y340157D02*X73622D01*
X70158Y343621D01*
X197244Y395275D02*X197150Y395181D01*
Y389504D01*
X134252Y324803D02*X152756D01*
X152363Y331889D02*X152756Y332282D01*
X102362Y329134D02*X127165D01*
X152363Y342914D02*Y342913D01*
X145669D01*
X118347Y375668D02*X118504Y375826D01*
Y379134D01*
X120079Y380709D01*
X141339D01*
X146457Y385827D01*
Y388189D01*
X279961Y170945D02*X280039Y170866D01*
X354724D01*
X354764Y208346D02*X354724Y208307D01*
Y190945D01*
X347638Y191338D02*X347245Y190945D01*
X340157D01*
X354764Y320551D02*X348386Y314173D01*
X335039D01*
Y266142D02*X322441Y253543D01*
X342913Y302756D02*X326024Y285866D01*
X274961Y210945D02*X50551D01*
X322441Y253543D02*X55512D01*
X274961Y285748D02*X125354D01*
X274961D02*X275276Y285433D01*
X326024Y285866D02*X274843D01*
X152756Y332282D02*Y342914D01*
X152363Y350000D03*
X158268D01*
X125354Y360551D02*X125433Y360630D01*
Y375275D01*
X132284Y375590D02*X131970Y375275D01*
X125433D01*
X139370Y375590D02*X145276Y381496D01*
X146850D01*
X274961Y360551D02*X125354D01*
X181448Y382512D02*X181542Y382418D01*
X173248Y386412D02*X173057Y386220D01*
X162992D01*
X181448Y390312D02*X181687Y390551D01*
X189370D01*
X181542Y382418D02*X204552D01*
X204631Y382339D02*X204552Y382418D01*
X204631Y389425D02*X204969Y389764D01*
X211024D01*
X285433Y434252D02*X285039Y433858D01*
X45669D01*
X55000Y449118D02*X60024Y444094D01*
X202756D01*
X147244Y448819D02*X146945Y449118D01*
X135000D01*
X80315Y438976D02*X94882D01*
X85827Y403543D02*X227559D01*
X60236Y428346D02*X74803D01*
X90157D02*X104724D01*
G54D12*X5000Y389118D03*
X15000D03*
X25000D03*
X35000D03*
X45000D03*
G54D13*X60551Y303149D03*
G54D14*X50551Y323149D03*
G54D15*X55551Y283149D03*
G54D16*G36*
X20151Y318549D02*Y307749D01*
X30951D01*
Y318549D01*
X20151D01*
G37*
G36*
X52222Y368525D02*Y362025D01*
X58722D01*
Y368525D01*
X52222D01*
G37*
G54D17*X45472Y365275D03*
G54D12*X55000Y389118D03*
X65000D03*
X75000D03*
X85000D03*
X95000D03*
X105000D03*
X115000Y449118D03*
X105000D03*
X95000D03*
X85000D03*
X75000D03*
X65000D03*
X55000D03*
X45000D03*
X35000D03*
X25000D03*
X15000D03*
X5000D03*
G54D18*X115354Y340551D03*
G54D15*X120354Y320551D03*
X110354D03*
G54D14*X125354Y285748D03*
G54D13*X95354Y340551D03*
G54D16*G36*
X94954Y355951D02*Y345151D01*
X105754D01*
Y355951D01*
X94954D01*
G37*
G54D13*X95354Y265748D03*
G54D16*G36*
X94954Y281148D02*Y270348D01*
X105754D01*
Y281148D01*
X94954D01*
G37*
G54D15*X100354Y245748D03*
G54D18*X40551Y303149D03*
Y190945D03*
Y116142D03*
Y41338D03*
G54D13*X20551Y303149D03*
G54D15*X25551Y283149D03*
G54D13*X60551Y190945D03*
G54D14*X50551Y210945D03*
G54D15*X55551Y170945D03*
G54D13*X60551Y116142D03*
G54D14*X50551Y136142D03*
G54D13*X20551Y190945D03*
G54D16*G36*
X20151Y206345D02*Y195545D01*
X30951D01*
Y206345D01*
X20151D01*
G37*
G54D15*X25551Y170945D03*
G54D13*X20551Y116142D03*
G54D16*G36*
X20151Y131542D02*Y120742D01*
X30951D01*
Y131542D01*
X20151D01*
G37*
G54D15*X55551Y96142D03*
G54D13*X60551Y41338D03*
G54D14*X50551Y61338D03*
G54D15*X55551Y21338D03*
X25551Y96142D03*
G54D13*X20551Y41338D03*
G54D16*G36*
X20151Y56738D02*Y45938D01*
X30951D01*
Y56738D01*
X20151D01*
G37*
G54D15*X25551Y21338D03*
G54D18*X115354Y265748D03*
G54D15*X130354Y245748D03*
G54D18*X115354Y190945D03*
G54D14*X125354Y210945D03*
G54D18*X115354Y116142D03*
G54D14*X125354Y136142D03*
G54D13*X95354Y190945D03*
G54D15*X100354Y170945D03*
G54D13*X95354Y116142D03*
G54D16*G36*
X94954Y131542D02*Y120742D01*
X105754D01*
Y131542D01*
X94954D01*
G37*
G54D15*X100354Y96142D03*
G54D13*X135354Y190945D03*
G54D15*X130354Y170945D03*
G54D16*G36*
X94954Y206345D02*Y195545D01*
X105754D01*
Y206345D01*
X94954D01*
G37*
G54D13*X135354Y116142D03*
G54D15*X130354Y96142D03*
G54D13*X132756Y41338D03*
G54D16*G36*
X132356Y56738D02*Y45938D01*
X143156D01*
Y56738D01*
X132356D01*
G37*
G54D15*X137756Y21338D03*
G54D18*X264961Y190945D03*
X190157D03*
G54D13*X170157D03*
X210157D03*
G54D16*G36*
X169757Y206345D02*Y195545D01*
X180557D01*
Y206345D01*
X169757D01*
G37*
G54D14*X200157Y210945D03*
G54D13*X244961Y190945D03*
G54D15*X249961Y170945D03*
X205157D03*
X175157D03*
G54D13*X284961Y190945D03*
G54D14*X274961Y210945D03*
G54D15*X279961Y170945D03*
G54D13*X284961Y265748D03*
G54D14*X274961Y285748D03*
G54D15*X279961Y245748D03*
G54D16*G36*
X244561Y206345D02*Y195545D01*
X255361D01*
Y206345D01*
X244561D01*
G37*
G54D18*X264961Y265748D03*
G54D13*X244961D03*
G54D16*G36*
X244561Y281148D02*Y270348D01*
X255361D01*
Y281148D01*
X244561D01*
G37*
G54D15*X249961Y245748D03*
G54D18*X339764Y228346D03*
G54D13*X359764D03*
G54D14*X349764Y248346D03*
G54D15*X354764Y208346D03*
G54D13*X319764Y228346D03*
G54D16*G36*
X319364Y243746D02*Y232946D01*
X330164D01*
Y243746D01*
X319364D01*
G37*
G54D15*X324764Y208346D03*
G54D13*X244961Y41338D03*
G54D15*X279961Y21338D03*
X249961D03*
G54D18*X264961Y41338D03*
G54D13*X284961D03*
G54D16*G36*
X244561Y56738D02*Y45938D01*
X255361D01*
Y56738D01*
X244561D01*
G37*
G54D14*X274961Y61338D03*
G54D18*X339764Y78740D03*
G54D13*X319764D03*
G54D15*X324764Y58740D03*
G54D13*X359764Y78740D03*
G54D14*X349764Y98740D03*
G54D15*X354764Y58740D03*
G54D16*G36*
X319364Y94140D02*Y83340D01*
X330164D01*
Y94140D01*
X319364D01*
G37*
G54D18*X190157Y116142D03*
G54D13*X210157D03*
G54D14*X200157Y136142D03*
G54D15*X205157Y96142D03*
G54D13*X170157Y116142D03*
G54D16*G36*
X169757Y131542D02*Y120742D01*
X180557D01*
Y131542D01*
X169757D01*
G37*
G54D15*X175157Y96142D03*
G54D18*X264961Y116142D03*
G54D13*X244961D03*
X284961D03*
G54D15*X279961Y96142D03*
G54D16*G36*
X244561Y131542D02*Y120742D01*
X255361D01*
Y131542D01*
X244561D01*
G37*
G54D15*X249961Y96142D03*
G54D14*X274961Y136142D03*
G54D18*X152756Y41338D03*
G54D13*X172756D03*
G54D14*X162756Y61338D03*
G54D15*X167756Y21338D03*
G54D12*X115000Y389118D03*
X125000D03*
X135000D03*
Y399118D03*
Y409118D03*
Y419118D03*
Y429118D03*
G54D13*X135354Y265748D03*
G54D12*X135000Y439118D03*
Y449118D03*
X125000D03*
G54D13*X135354Y340551D03*
G54D14*X125354Y360551D03*
G54D18*X190157Y340551D03*
G54D13*X210157D03*
G54D14*X200157Y360551D03*
G54D15*X205157Y320551D03*
G54D13*X170157Y340551D03*
G54D16*G36*
X169757Y355951D02*Y345151D01*
X180557D01*
Y355951D01*
X169757D01*
G37*
G54D15*X175157Y320551D03*
G54D18*X264961Y340551D03*
G54D13*X244961D03*
G54D16*G36*
X244561Y355951D02*Y345151D01*
X255361D01*
Y355951D01*
X244561D01*
G37*
G54D15*X249961Y320551D03*
G54D18*X190157Y265748D03*
G54D13*X210157D03*
G54D14*X200157Y285748D03*
G54D15*X205157Y245748D03*
G54D13*X170157Y265748D03*
G54D16*G36*
X169757Y281148D02*Y270348D01*
X180557D01*
Y281148D01*
X169757D01*
G37*
G54D15*X175157Y245748D03*
G54D13*X284961Y340551D03*
G54D15*X279961Y320551D03*
G54D14*X274961Y360551D03*
X349764D03*
G54D18*X339764Y340551D03*
G54D13*X319764D03*
X359764D03*
G54D16*G36*
X319364Y355951D02*Y345151D01*
X330164D01*
Y355951D01*
X319364D01*
G37*
G54D15*X354764Y320551D03*
X324764D03*
G54D19*X59055Y78346D02*Y77560D01*
X43701Y78346D02*Y77560D01*
X50787Y78346D02*Y77560D01*
X66141Y78346D02*Y77560D01*
X161260Y78424D02*Y77638D01*
X168346Y78424D02*Y77638D01*
X283465Y78346D02*Y77560D01*
X267717Y78346D02*Y77560D01*
X274803Y78346D02*Y77560D01*
X290551Y78346D02*Y77560D01*
X310630Y22046D02*Y21260D01*
X303544Y22046D02*Y21260D01*
X43622Y153228D02*Y152442D01*
X50708Y153228D02*Y152442D01*
X43701Y229133D02*Y228347D01*
X50787Y229133D02*Y228347D01*
X347638Y191338D02*Y190552D01*
X354724Y191338D02*Y190552D01*
X347953Y116613D02*Y115827D01*
X355039Y116613D02*Y115827D01*
X59134Y229291D02*Y228505D01*
X66220Y229291D02*Y228505D01*
X58977Y153228D02*Y152442D01*
X66063Y153228D02*Y152442D01*
X132284Y375590D02*Y374804D01*
X139370Y375590D02*Y374804D01*
X132284Y302755D02*Y301969D01*
X139370Y302755D02*Y301969D01*
X118111Y302755D02*Y301969D01*
X125197Y302755D02*Y301969D01*
X152363Y324803D02*X153149D01*
X152363Y331889D02*X153149D01*
X118347Y375668D02*Y374882D01*
X125433Y375668D02*Y374882D01*
G54D20*X70158Y350685D02*Y348685D01*
X77558Y350685D02*Y348685D01*
G54D19*X48426Y349212D02*Y348426D01*
X55512Y349212D02*Y348426D01*
X152363Y350000D02*X153149D01*
X152363Y342914D02*X153149D01*
X204631Y389425D02*X205417D01*
X204631Y382339D02*X205417D01*
X196757Y389504D02*X197543D01*
X196757Y382418D02*X197543D01*
G54D21*X181448Y382512D02*X182048D01*
X181448Y390312D02*X182048D01*
X173248Y386412D02*X173848D01*
G54D22*X73622Y157480D03*
X55512Y253543D03*
X72441Y235039D03*
X80709Y239370D03*
X80315Y161024D03*
X86220Y233464D03*
X127165Y329134D03*
X25197Y424016D03*
X104724Y428346D03*
X100000Y418898D03*
X114961D03*
X85039Y404331D03*
X81496Y340157D03*
X80315Y438976D03*
X94882D03*
X90157Y428346D03*
X42520Y348819D03*
X35039Y414567D03*
X45669Y433858D03*
X60236Y428346D03*
X74803D03*
X70079Y359842D03*
X205118Y21260D03*
X76378Y83071D03*
X129921Y66535D03*
X205118Y77953D03*
X155512D03*
X354724Y170866D03*
X298031Y83071D03*
X339370Y44094D03*
X341732Y116142D03*
X362205Y116535D03*
X319291Y16535D03*
X227559Y77953D03*
X79528Y87795D03*
X340157Y190945D03*
X335039Y314173D03*
Y266142D03*
X342913Y302756D03*
X146850Y307480D03*
X158268Y350000D03*
X162992Y314173D03*
X145669Y342913D03*
X139370Y308661D03*
X189370Y390551D03*
X197244Y414173D03*
Y395275D03*
X202756Y444094D03*
X211024Y389764D03*
X285433Y434252D03*
X227559Y403543D03*
X162992Y386220D03*
X146850Y381496D03*
X153150Y424016D03*
X146457Y388189D03*
X147244Y448819D03*
G54D23*G54D24*G54D25*G54D12*G54D26*G54D12*G54D27*G54D28*G54D24*G54D29*G54D26*G54D12*G54D25*G54D12*G54D25*G54D12*G54D26*G54D29*G54D25*G54D26*G54D28*G54D25*G54D12*G54D26*G54D25*G54D12*G54D25*G54D12*G54D26*G54D25*G54D12*G54D26*G54D25*G54D12*G54D26*G54D25*G54D12*G54D26*G54D29*G54D26*G54D29*G54D12*G54D29*G54D12*G54D25*G54D26*G54D25*G54D12*G54D26*G54D28*G54D25*G54D26*G54D12*G54D25*G54D26*G54D25*G54D12*G54D26*G54D29*G54D25*G54D12*G54D25*G54D26*G54D25*G54D12*G54D26*G54D25*G54D12*G54D26*G54D12*G54D29*G54D25*G54D12*G54D26*G54D29*G54D25*G54D12*G54D26*G54D25*G54D12*G54D26*G54D25*G54D26*G54D29*G54D25*G54D12*G54D29*G54D25*G54D26*G54D25*G54D12*G54D26*G54D28*G54D12*G54D29*G54D25*G54D12*G54D26*G54D25*G54D12*G54D26*G54D29*G54D25*G54D26*G54D12*G54D26*G54D12*G54D29*G54D25*G54D12*G54D26*G54D24*G54D25*G54D24*G54D25*G54D12*G54D29*G54D25*G54D12*G54D26*G54D25*G54D12*G54D26*G54D29*G54D25*G54D12*G54D26*G54D29*G54D25*G54D12*G54D26*G54D25*G54D12*G54D26*G54D25*G54D26*G54D12*G54D29*G54D25*G54D12*G54D26*G54D28*M02*
