M48
INCH
T85C0.012
T84C0.157
T83C0.043
T82C0.040
T81C0.060
T80C0.067
T79C0.035
%
T85
X007362Y015748
X005551Y025354
X007244Y023504
X008071Y023937
X008032Y016102
X008622Y023346
X012716Y032913
X002520Y042402
X010472Y042835
X010000Y041890
X011496Y041890
X008504Y040433
X008150Y034016
X008032Y043898
X009488Y043898
X009016Y042835
X004252Y034882
X003504Y041457
X004567Y043386
X006024Y042835
X007480Y042835
X007008Y035984
X020512Y002126
X007638Y008307
X012992Y006654
X020512Y007795
X015551Y007795
X035472Y017087
X029803Y008307
X033937Y004409
X034173Y011614
X036220Y011654
X031929Y001654
X022756Y007795
X007953Y008780
X034016Y019094
X033504Y031417
X033504Y026614
X034291Y030276
X014685Y030748
X015827Y035000
X016299Y031417
X014567Y034291
X013937Y030866
X018937Y039055
X019724Y041417
X019724Y039528
X020276Y044409
X021102Y038976
X028543Y043425
X022756Y040354
X016299Y038622
X014685Y038150
X015315Y042402
X014646Y038819
X014724Y044882
T79
X000500Y038912
X001500Y038912
X002500Y038912
X003500Y038912
X004500Y038912
X005500Y038912
X006500Y038912
X007500Y038912
X008500Y038912
X009500Y038912
X010500Y038912
X011500Y044912
X010500Y044912
X009500Y044912
X008500Y044912
X007500Y044912
X006500Y044912
X005500Y044912
X004500Y044912
X003500Y044912
X002500Y044912
X001500Y044912
X000500Y044912
X011500Y038912
X012500Y038912
X013500Y038912
X013500Y039912
X013500Y040912
X013500Y041912
X013500Y042912
X013500Y043912
X013500Y044912
X012500Y044912
T82
X005555Y028315
X012035Y032055
X011035Y032055
X010035Y024575
X002555Y028315
X005555Y017094
X002555Y017094
X005555Y009614
X005555Y002134
X002555Y009614
X002555Y002134
X013035Y024575
X010035Y017094
X010035Y009614
X013035Y017094
X013035Y009614
X013776Y002134
X024996Y017094
X020516Y017094
X017516Y017094
X027996Y017094
X027996Y024575
X024996Y024575
X035476Y020835
X032476Y020835
X027996Y002134
X024996Y002134
X032476Y005874
X035476Y005874
X020516Y009614
X017516Y009614
X027996Y009614
X024996Y009614
X016776Y002134
X020516Y032055
X017516Y032055
X024996Y032055
X020516Y024575
X017516Y024575
X027996Y032055
X035476Y032055
X032476Y032055
T83
X005547Y036528
X004547Y036528
T81
X005055Y032315
X002555Y031315
X012535Y028575
X010035Y035055
X010035Y027575
X005055Y021094
X005055Y013614
X002555Y020094
X002555Y012614
X005055Y006134
X002555Y005134
X012535Y021094
X012535Y013614
X010035Y012614
X010035Y020094
X013776Y005134
X017516Y020094
X020016Y021094
X027496Y021094
X027496Y028575
X024996Y020094
X024996Y027575
X034976Y024835
X032476Y023835
X024996Y005134
X027496Y006134
X034976Y009874
X032476Y008874
X020016Y013614
X017516Y012614
X024996Y012614
X027496Y013614
X016276Y006134
X012535Y036055
X020016Y036055
X017516Y035055
X024996Y035055
X020016Y028575
X017516Y027575
X027496Y036055
X034976Y036055
X032476Y035055
T80
X006055Y030315
X009535Y034055
X009535Y026575
X002055Y030315
X006055Y019094
X006055Y011614
X002055Y019094
X002055Y011614
X006055Y004134
X002055Y004134
X009535Y019094
X009535Y011614
X013535Y019094
X013535Y011614
X013276Y004134
X017016Y019094
X021016Y019094
X024496Y019094
X028496Y019094
X028496Y026575
X024496Y026575
X035976Y022835
X031976Y022835
X024496Y004134
X028496Y004134
X031976Y007874
X035976Y007874
X021016Y011614
X017016Y011614
X024496Y011614
X028496Y011614
X017276Y004134
X013535Y026575
X013535Y034055
X021016Y034055
X017016Y034055
X024496Y034055
X021016Y026575
X017016Y026575
X028496Y034055
X031976Y034055
X035976Y034055
T84
X011535Y034055
X004055Y030315
X004055Y019094
X004055Y011614
X004055Y004134
X011535Y026575
X011535Y019094
X011535Y011614
X026496Y019094
X019016Y019094
X026496Y026575
X033976Y022835
X026496Y004134
X033976Y007874
X019016Y011614
X026496Y011614
X015276Y004134
X019016Y034055
X026496Y034055
X019016Y026575
X033976Y034055
M30
