G04 start of page 6 for group 7 idx 7 *
G04 Title: SFT-HW-0023, spare *
G04 Creator: pcb 20110918 *
G04 CreationDate: Fri 17 Apr 2015 10:20:39 PM GMT UTC *
G04 For: tgack *
G04 Format: Gerber/RS-274X *
G04 PCB-Dimensions: 380630 455118 *
G04 PCB-Coordinate-Origin: lower left *
%MOIN*%
%FSLAX25Y25*%
%LNGROUP7*%
%ADD78C,0.1575*%
%ADD77C,0.1440*%
%ADD76C,0.0430*%
%ADD75C,0.0400*%
%ADD74C,0.0669*%
%ADD73C,0.0350*%
%ADD72C,0.0120*%
%ADD71C,0.0240*%
%ADD70C,0.1615*%
%ADD69C,0.0650*%
%ADD68C,0.0001*%
%ADD67C,0.0640*%
%ADD66C,0.1080*%
%ADD65C,0.0709*%
%ADD64C,0.0600*%
%ADD63C,0.0100*%
G54D63*X265157Y375000D02*X264961Y375197D01*
X339961Y387205D02*X340157Y387401D01*
G54D64*X5000Y389118D03*
X15000D03*
X25000D03*
X35000D03*
X45000D03*
G54D65*X60551Y303149D03*
G54D66*X50551Y323149D03*
G54D67*X55551Y283149D03*
G54D68*G36*
X20151Y318549D02*Y307749D01*
X30951D01*
Y318549D01*
X20151D01*
G37*
G36*
X52222Y368525D02*Y362025D01*
X58722D01*
Y368525D01*
X52222D01*
G37*
G54D69*X45472Y365275D03*
G54D64*X55000Y389118D03*
X65000D03*
X75000D03*
X85000D03*
X95000D03*
X105000D03*
X115000Y449118D03*
X105000D03*
X95000D03*
X85000D03*
X75000D03*
X65000D03*
X55000D03*
X45000D03*
X35000D03*
X25000D03*
X15000D03*
X5000D03*
G54D70*X115354Y340551D03*
G54D67*X120354Y320551D03*
X110354D03*
G54D66*X125354Y285748D03*
G54D65*X95354Y340551D03*
G54D68*G36*
X94954Y355951D02*Y345151D01*
X105754D01*
Y355951D01*
X94954D01*
G37*
G54D65*X95354Y265748D03*
G54D68*G36*
X94954Y281148D02*Y270348D01*
X105754D01*
Y281148D01*
X94954D01*
G37*
G54D67*X100354Y245748D03*
G54D70*X40551Y303149D03*
Y190945D03*
Y116142D03*
Y41338D03*
G54D65*X20551Y303149D03*
G54D67*X25551Y283149D03*
G54D65*X60551Y190945D03*
G54D66*X50551Y210945D03*
G54D67*X55551Y170945D03*
G54D65*X60551Y116142D03*
G54D66*X50551Y136142D03*
G54D65*X20551Y190945D03*
G54D68*G36*
X20151Y206345D02*Y195545D01*
X30951D01*
Y206345D01*
X20151D01*
G37*
G54D67*X25551Y170945D03*
G54D65*X20551Y116142D03*
G54D68*G36*
X20151Y131542D02*Y120742D01*
X30951D01*
Y131542D01*
X20151D01*
G37*
G54D67*X55551Y96142D03*
G54D65*X60551Y41338D03*
G54D66*X50551Y61338D03*
G54D67*X55551Y21338D03*
X25551Y96142D03*
G54D65*X20551Y41338D03*
G54D68*G36*
X20151Y56738D02*Y45938D01*
X30951D01*
Y56738D01*
X20151D01*
G37*
G54D67*X25551Y21338D03*
G54D70*X115354Y265748D03*
G54D67*X130354Y245748D03*
G54D70*X115354Y190945D03*
G54D66*X125354Y210945D03*
G54D70*X115354Y116142D03*
G54D66*X125354Y136142D03*
G54D65*X95354Y190945D03*
G54D67*X100354Y170945D03*
G54D65*X95354Y116142D03*
G54D68*G36*
X94954Y131542D02*Y120742D01*
X105754D01*
Y131542D01*
X94954D01*
G37*
G54D67*X100354Y96142D03*
G54D65*X135354Y190945D03*
G54D67*X130354Y170945D03*
G54D68*G36*
X94954Y206345D02*Y195545D01*
X105754D01*
Y206345D01*
X94954D01*
G37*
G54D65*X135354Y116142D03*
G54D67*X130354Y96142D03*
G54D65*X132756Y41338D03*
G54D68*G36*
X132356Y56738D02*Y45938D01*
X143156D01*
Y56738D01*
X132356D01*
G37*
G54D67*X137756Y21338D03*
G54D70*X264961Y190945D03*
X190157D03*
G54D65*X170157D03*
X210157D03*
G54D68*G36*
X169757Y206345D02*Y195545D01*
X180557D01*
Y206345D01*
X169757D01*
G37*
G54D66*X200157Y210945D03*
G54D65*X244961Y190945D03*
G54D67*X249961Y170945D03*
X205157D03*
X175157D03*
G54D65*X284961Y190945D03*
G54D66*X274961Y210945D03*
G54D67*X279961Y170945D03*
G54D65*X284961Y265748D03*
G54D66*X274961Y285748D03*
G54D67*X279961Y245748D03*
G54D68*G36*
X244561Y206345D02*Y195545D01*
X255361D01*
Y206345D01*
X244561D01*
G37*
G54D70*X264961Y265748D03*
G54D65*X244961D03*
G54D68*G36*
X244561Y281148D02*Y270348D01*
X255361D01*
Y281148D01*
X244561D01*
G37*
G54D67*X249961Y245748D03*
G54D70*X339764Y228346D03*
G54D65*X359764D03*
G54D66*X349764Y248346D03*
G54D67*X354764Y208346D03*
G54D65*X319764Y228346D03*
G54D68*G36*
X319364Y243746D02*Y232946D01*
X330164D01*
Y243746D01*
X319364D01*
G37*
G54D67*X324764Y208346D03*
G54D65*X244961Y41338D03*
G54D67*X279961Y21338D03*
X249961D03*
G54D70*X264961Y41338D03*
G54D65*X284961D03*
G54D68*G36*
X244561Y56738D02*Y45938D01*
X255361D01*
Y56738D01*
X244561D01*
G37*
G54D66*X274961Y61338D03*
G54D70*X339764Y78740D03*
G54D65*X319764D03*
G54D67*X324764Y58740D03*
G54D65*X359764Y78740D03*
G54D66*X349764Y98740D03*
G54D67*X354764Y58740D03*
G54D68*G36*
X319364Y94140D02*Y83340D01*
X330164D01*
Y94140D01*
X319364D01*
G37*
G54D70*X190157Y116142D03*
G54D65*X210157D03*
G54D66*X200157Y136142D03*
G54D67*X205157Y96142D03*
G54D65*X170157Y116142D03*
G54D68*G36*
X169757Y131542D02*Y120742D01*
X180557D01*
Y131542D01*
X169757D01*
G37*
G54D67*X175157Y96142D03*
G54D70*X264961Y116142D03*
G54D65*X244961D03*
X284961D03*
G54D67*X279961Y96142D03*
G54D68*G36*
X244561Y131542D02*Y120742D01*
X255361D01*
Y131542D01*
X244561D01*
G37*
G54D67*X249961Y96142D03*
G54D66*X274961Y136142D03*
G54D70*X152756Y41338D03*
G54D65*X172756D03*
G54D66*X162756Y61338D03*
G54D67*X167756Y21338D03*
G54D64*X115000Y389118D03*
X125000D03*
X135000D03*
Y399118D03*
Y409118D03*
Y419118D03*
Y429118D03*
G54D65*X135354Y265748D03*
G54D64*X135000Y439118D03*
Y449118D03*
X125000D03*
G54D65*X135354Y340551D03*
G54D66*X125354Y360551D03*
G54D70*X190157Y340551D03*
G54D65*X210157D03*
G54D66*X200157Y360551D03*
G54D67*X205157Y320551D03*
G54D65*X170157Y340551D03*
G54D68*G36*
X169757Y355951D02*Y345151D01*
X180557D01*
Y355951D01*
X169757D01*
G37*
G54D67*X175157Y320551D03*
G54D70*X264961Y340551D03*
G54D65*X244961D03*
G54D68*G36*
X244561Y355951D02*Y345151D01*
X255361D01*
Y355951D01*
X244561D01*
G37*
G54D67*X249961Y320551D03*
G54D70*X190157Y265748D03*
G54D65*X210157D03*
G54D66*X200157Y285748D03*
G54D67*X205157Y245748D03*
G54D65*X170157Y265748D03*
G54D68*G36*
X169757Y281148D02*Y270348D01*
X180557D01*
Y281148D01*
X169757D01*
G37*
G54D67*X175157Y245748D03*
G54D65*X284961Y340551D03*
G54D67*X279961Y320551D03*
G54D66*X274961Y360551D03*
X349764D03*
G54D70*X339764Y340551D03*
G54D65*X319764D03*
X359764D03*
G54D68*G36*
X319364Y355951D02*Y345151D01*
X330164D01*
Y355951D01*
X319364D01*
G37*
G54D67*X354764Y320551D03*
X324764D03*
G54D71*X73622Y157480D03*
X55512Y253543D03*
X72441Y235039D03*
X80709Y239370D03*
X80315Y161024D03*
X86220Y233464D03*
X127165Y329134D03*
X25197Y424016D03*
X104724Y428346D03*
X100000Y418898D03*
X114961D03*
X85039Y404331D03*
X81496Y340157D03*
X80315Y438976D03*
X94882D03*
X90157Y428346D03*
X42520Y348819D03*
X35039Y414567D03*
X45669Y433858D03*
X60236Y428346D03*
X74803D03*
X70079Y359842D03*
X205118Y21260D03*
X76378Y83071D03*
X129921Y66535D03*
X205118Y77953D03*
X155512D03*
X354724Y170866D03*
X298031Y83071D03*
X339370Y44094D03*
X341732Y116142D03*
X362205Y116535D03*
X319291Y16535D03*
X227559Y77953D03*
X79528Y87795D03*
X340157Y190945D03*
X335039Y314173D03*
Y266142D03*
X342913Y302756D03*
X146850Y307480D03*
X158268Y350000D03*
X162992Y314173D03*
X145669Y342913D03*
X139370Y308661D03*
X189370Y390551D03*
X197244Y414173D03*
Y395275D03*
X202756Y444094D03*
X211024Y389764D03*
X285433Y434252D03*
X227559Y403543D03*
X162992Y386220D03*
X146850Y381496D03*
X153150Y424016D03*
X146457Y388189D03*
X147244Y448819D03*
G54D72*G54D73*G54D74*G54D64*G54D75*G54D64*G54D76*G54D77*G54D73*G54D78*G54D75*G54D64*G54D74*G54D64*G54D74*G54D64*G54D75*G54D78*G54D74*G54D75*G54D77*G54D74*G54D64*G54D75*G54D74*G54D64*G54D74*G54D64*G54D75*G54D74*G54D64*G54D75*G54D74*G54D64*G54D75*G54D74*G54D64*G54D75*G54D78*G54D75*G54D78*G54D64*G54D78*G54D64*G54D74*G54D75*G54D74*G54D64*G54D75*G54D77*G54D74*G54D75*G54D64*G54D74*G54D75*G54D74*G54D64*G54D75*G54D78*G54D74*G54D64*G54D74*G54D75*G54D74*G54D64*G54D75*G54D74*G54D64*G54D75*G54D64*G54D78*G54D74*G54D64*G54D75*G54D78*G54D74*G54D64*G54D75*G54D74*G54D64*G54D75*G54D74*G54D75*G54D78*G54D74*G54D64*G54D78*G54D74*G54D75*G54D74*G54D64*G54D75*G54D77*G54D64*G54D78*G54D74*G54D64*G54D75*G54D74*G54D64*G54D75*G54D78*G54D74*G54D75*G54D64*G54D75*G54D64*G54D78*G54D74*G54D64*G54D75*G54D73*G54D74*G54D73*G54D74*G54D64*G54D78*G54D74*G54D64*G54D75*G54D74*G54D64*G54D75*G54D78*G54D74*G54D64*G54D75*G54D78*G54D74*G54D64*G54D75*G54D74*G54D64*G54D75*G54D74*G54D75*G54D64*G54D78*G54D74*G54D64*G54D75*G54D77*M02*
